<svg xmlns="http://www.w3.org/2000/svg" version="1.1" xmlns:xlink="http://www.w3.org/1999/xlink" width="512" height="512" x="0" y="0" viewBox="0 0 64 64" style="enable-background:new 0 0 512 512" xml:space="preserve" class=""><g transform="matrix(-1,0,0,1,64.00167751312256,0)"><path d="m60.371 31.071-10-4a1 1 0 0 0-1.266.482l-.88 1.762-2.045 1.363c.627-5.3-.145-9.744-2.335-13.212-3.128-4.949-9.145-7.719-5.989-12.949A1 1 0 0 0 36.968 3c-4.068.129-8.72 1.629-8.063 5.645L7.741 28H4a1 1 0 0 0-.949 1.313L3.946 32l-.895 2.687A1 1 0 0 0 4 36h3.741l21.164 19.354C28.248 59.37 32.9 60.87 36.968 61a1 1 0 0 0 .888-1.516c-3.146-5.217 2.857-8 5.99-12.949 2.19-3.468 2.961-7.914 2.334-13.212l2.045 1.363.88 1.762A1 1 0 0 0 50 37c.3 0 .034.069 10.371-4.071a1 1 0 0 0 0-1.858zM29.582 53.262 10.53 35.839c.414-.261.357-.34 1.19-2.839h27.524c3.318 11.752-6.31 12.839-9.662 20.262zM39.244 31H11.72c-.844-2.532-.786-2.584-1.19-2.839l19.052-17.423C32.9 18.087 42.561 19.252 39.244 31zm2.6-6h2.431c.069.645.107 1.313.115 2h-2.478a13.841 13.841 0 0 0-.072-2zm-.11 4h2.6q-.066.975-.206 2h-2.8a20.2 20.2 0 0 0 .402-2zm.182 8h2.474a21.137 21.137 0 0 1-.115 2H41.84a13.841 13.841 0 0 0 .072-2zm-.182-2a20.2 20.2 0 0 0-.41-2h2.8q.14 1.025.206 2zM30.941 7.338c.426-1.187 2.338-1.907 4.428-2.2-2 5.9 3.948 8.907 6.785 13.393A14.051 14.051 0 0 1 43.952 23h-2.523c-1.862-6.242-8.993-8.855-10.464-14.262a2.293 2.293 0 0 1-.024-1.4zM5.388 30h3.891l.667 2-.667 2H5.388c.799-2.4.799-1.6 0-4zm36.767 15.466c-2.856 4.512-8.782 7.477-6.787 13.393-2.089-.29-4-1.01-4.427-2.2a2.293 2.293 0 0 1 .024-1.4c1.45-5.332 8.62-8.08 10.464-14.262h2.523a14.073 14.073 0 0 1-1.797 4.469zm8.328-10.737c-.878-1.755-.334-1.165-2.68-2.729 2.319-1.546 1.794-.959 2.68-2.729L57.308 32z" fill="#ffffff" opacity="1" data-original="#000000"></path></g></svg>