<svg id="Capa_1" enable-background="new 0 0 512 512" height="512" viewBox="0 0 512 512" width="512" xmlns="http://www.w3.org/2000/svg"><g><path d="m480.49 242c-7.37-112.5-97.06-202.12-209.49-209.49v-32.51h-30v32.51c-112.5 7.37-202.12 97.06-209.49 209.49h-31.51v30h31.51c7.37 112.5 97.06 202.12 209.49 209.49v30.51h30v-30.51c112.5-7.37 202.12-97.06 209.49-209.49h31.51v-30zm-239.49-179.43v30.19c-78.16 7.07-142.08 68.89-149.25 149.24h-30.18c7.31-95.59 83.84-172.12 179.43-179.43zm0 388.86c-95.59-7.31-172.12-83.84-179.43-179.43h30.18c7.01 78.54 69.23 142 149.25 149.24zm0-119.43v59.1c-62.81-6.96-112.26-56.53-119.1-119.1h59.1v-30h-59.1c6.84-62.57 56.29-112.14 119.1-119.1v59.1h30v-59.1c62.26 6.9 112.1 55.92 119.1 119.1h-59.1v30h59.1c-6.9 62.24-55.91 112.09-119.1 119.1v-59.1zm30 119.43v-30.19c78.73-7.13 142.01-69.32 149.24-149.24h30.19c-7.31 95.59-83.84 172.12-179.43 179.43zm149.24-209.43c-7.18-79.29-69.84-142.05-149.24-149.24v-30.19c95.59 7.31 172.12 83.84 179.43 179.43z" fill="#ff641a"/><path d="m480.49 242c-7.37-112.5-97.06-202.12-209.49-209.49v-32.51h-15v182h15v-59.1c62.26 6.9 112.1 55.92 119.1 119.1h-59.1v30h59.1c-6.9 62.24-55.91 112.09-119.1 119.1v-59.1h-15v180h15v-30.51c112.5-7.37 202.12-97.06 209.49-209.49h31.51v-30zm-209.49 209.43v-30.19c78.73-7.13 142.01-69.32 149.24-149.24h30.19c-7.31 95.59-83.84 172.12-179.43 179.43zm149.24-209.43c-7.18-79.29-69.84-142.05-149.24-149.24v-30.19c95.59 7.31 172.12 83.84 179.43 179.43z" fill="#f03800"/><path d="m241.002 242.002h29.995v29.995h-29.995z" fill="#ff641a" transform="matrix(.707 -.707 .707 .707 -106.746 256.293)"/><path d="m277.21 257-21.21 21.21v-42.42z" fill="#f03800"/></g></svg>