<?xml version="1.0" encoding="iso-8859-1"?>
<!-- Generator: Adobe Illustrator 19.0.0, SVG Export Plug-In . SVG Version: 6.00 Build 0)  -->
<svg version="1.1" id="Capa_1" xmlns="http://www.w3.org/2000/svg" xmlns:xlink="http://www.w3.org/1999/xlink" x="0px" y="0px"
	 viewBox="0 0 512 512" style="enable-background:new 0 0 512 512;" xml:space="preserve">
<path style="fill:#F74C48;" d="M381.428,132.91c0-69.284-56.165-125.449-125.449-125.449c-69.283,0-125.449,56.165-125.449,125.449
	c0,39.649,18.4,74.997,47.12,97.985v42.558c0,8.111,6.575,14.687,14.687,14.687h9.791c8.111,0,14.687-6.575,14.687-14.687
	c0,8.111,6.575,14.687,14.687,14.687h9.791c8.111,0,14.687-6.575,14.687-14.687c0,8.111,6.575,14.687,14.687,14.687h9.791
	c8.111,0,14.687-6.575,14.687-14.687c0,8.111,6.575,14.687,14.687,14.687h9.791c8.111,0,14.687-6.575,14.687-14.687v-42.558
	C363.028,207.907,381.428,172.56,381.428,132.91z"/>
<path style="fill:#D63322;" d="M197.623,234.816c0-6.946-2.775-12.105-5.538-14.281l0.003-0.001
	C122.22,157.683,143.813,42.88,231.816,9.795c-104.64,20.418-137.34,154.528-54.168,221.101v42.558
	c0,8.111,6.575,14.687,14.687,14.687h9.564c-2.644-2.656-4.277-6.316-4.277-10.358v-42.967H197.623z"/>
<g>
	<path style="fill:#C6271A;" d="M333.489,138.621h-54.526c-4.212,0-7.626,3.414-7.626,7.626c0,22.677,15.652,41.127,34.889,41.127
		c19.237,0,34.888-18.45,34.888-41.127C341.115,142.034,337.7,138.621,333.489,138.621z"/>
	<path style="fill:#C6271A;" d="M232.994,138.621h-54.526c-4.211,0-7.626,3.414-7.626,7.626c0,22.677,15.651,41.127,34.888,41.127
		c19.239,0,34.889-18.45,34.889-41.127C240.62,142.034,237.205,138.621,232.994,138.621z"/>
	<path style="fill:#C6271A;" d="M255.977,199.135c-0.979,0-1.874,0.494-2.396,1.321l-20.663,32.751
		c-0.551,0.873-0.583,1.975-0.085,2.881c0.498,0.903,1.449,1.465,2.481,1.465h41.33c1.998,0,3.709-2.148,2.306-4.487l-20.576-32.609
		C257.851,199.629,256.955,199.135,255.977,199.135z"/>
</g>
<g>
	<path style="fill:#AF221B;" d="M291.312,146.247c0-4.213,3.415-7.626,7.626-7.626h-19.974c-4.212,0-7.626,3.414-7.626,7.626
		c0,22.677,15.652,41.127,34.889,41.127c3.47,0,6.82-0.608,9.987-1.726C301.828,180.571,291.312,164.833,291.312,146.247z"/>
	<path style="fill:#AF221B;" d="M190.817,146.247c0-4.213,3.415-7.626,7.626-7.626h-19.974c-4.211,0-7.626,3.414-7.626,7.626
		c0,27.529,22.57,47.272,44.875,39.402C201.333,180.572,190.817,164.833,190.817,146.247z"/>
	<path style="fill:#AF221B;" d="M252.806,236.088c-0.498-0.906-0.466-2.008,0.085-2.881l13.073-20.721l-7.591-12.03
		c-0.521-0.827-1.418-1.321-2.396-1.321c-0.979,0-1.874,0.494-2.396,1.321l-20.663,32.751c-0.551,0.873-0.583,1.975-0.085,2.881
		c0.498,0.903,1.449,1.465,2.481,1.465h19.974C254.255,237.553,253.304,236.991,252.806,236.088z"/>
</g>
<path style="fill:#D63322;" d="M369.786,438.1c-10.217-5.898-202.178-116.726-212.316-122.581
	c8.487-12.508,4.323-29.127-8.311-36.42c-19.218-11.096-42.379,6.045-37.653,27.547c-20.982,6.662-24.254,35.287-5.031,46.383
	c12.549,7.247,29.067,2.676,35.696-11.012l5.731,3.309c10.208,5.893,196.611,113.513,206.586,119.272
	c-8.49,12.52-4.317,29.131,8.31,36.42c19.22,11.099,42.38-6.044,37.654-27.549c20.982-6.653,24.254-35.286,5.031-46.381
	C392.89,419.815,376.426,424.441,369.786,438.1z"/>
<path style="fill:#C6271A;" d="M370.288,487.535c-10.968-6.331-15.446-19.58-11.115-31.055h-0.004
	c1.173-2.609,0.555-6.341-3.007-8.723c-0.001-0.001-199.222-115.02-199.222-115.02c-4.427-2.556-8.337-1.666-10.799,1.236
	l-0.004,0.005l0,0c-16.961,19.992-49.617,4.108-44.413-21.575c-12.429,11.729-10.003,32.108,4.751,40.625
	c12.195,7.043,27.789,2.861,34.83-9.332c0.319-0.553,0.593-1.117,0.866-1.681l5.731,3.309
	c10.208,5.893,196.611,113.513,206.586,119.272c-8.49,12.52-4.317,29.131,8.31,36.42c15.043,8.687,34.277,0.088,37.744-17.02
	C392.56,491.537,380.283,493.307,370.288,487.535z"/>
<path style="fill:#F74C48;" d="M142.173,438.1c10.217-5.899,202.176-116.725,212.316-122.581c-8.52-12.554-4.274-29.156,8.311-36.42
	c19.218-11.096,42.379,6.045,37.653,27.547c5.85,1.858,11.054,5.818,14.365,11.553c7.041,12.196,2.861,27.791-9.334,34.831
	c-12.55,7.247-29.067,2.676-35.696-11.012c-9.896,5.713-202.087,116.675-212.317,122.58c8.49,12.519,4.317,29.13-8.31,36.42
	c-19.22,11.098-42.381-6.044-37.654-27.549c-20.983-6.654-24.253-35.286-5.031-46.381
	C119.068,419.815,135.532,424.441,142.173,438.1z"/>
<path style="fill:#D63322;" d="M370.288,292.581c-10.968,6.331-15.446,19.58-11.115,31.055h-0.003
	c1.177,2.792,0.487,6.386-3.007,8.723c-0.001,0.001-199.222,115.02-199.222,115.02c-4.514,2.607-8.566,1.57-10.803-1.241l0,0
	c-16.961-19.991-49.617-4.108-44.413,21.575c-12.429-11.729-10.003-32.109,4.751-40.625c12.595-7.273,29.087-2.633,35.696,11.012
	c10.122-5.842,201.71-116.456,212.317-122.58c-8.49-12.52-4.318-29.13,8.31-36.42c15.043-8.687,34.277-0.088,37.744,17.02
	C392.56,288.579,380.283,286.809,370.288,292.581z"/>
<path d="M348.609,146.276c0-8.335-6.781-15.116-15.116-15.116h-54.526c-8.335,0-15.116,6.781-15.116,15.116
	c0,26.808,19.011,48.617,42.38,48.617C329.598,194.892,348.609,173.083,348.609,146.276z M278.831,146.276
	c0-0.075,0.061-0.136,0.136-0.136c0.211,0,54.661-0.075,54.661,0.136c0,18.548-12.291,33.637-27.398,33.637
	C291.123,179.912,278.831,164.823,278.831,146.276z"/>
<path d="M248.114,146.276c0-8.335-6.781-15.116-15.116-15.116h-54.526c-8.335,0-15.116,6.781-15.116,15.116
	c0,26.808,19.011,48.617,42.379,48.617C229.103,194.892,248.114,173.083,248.114,146.276z M205.734,179.912
	c-15.107,0-27.398-15.089-27.398-33.637c0-0.211,54.451-0.136,54.661-0.136c0.075,0,0.136,0.061,0.136,0.136
	C233.134,164.823,220.843,179.912,205.734,179.912z"/>
<path d="M235.317,245.073h41.33c8.227,0,13.162-9.217,8.586-16.06l-20.521-32.524c-4.044-6.409-13.398-6.429-17.462,0
	l-20.662,32.749C222.263,236.086,227.185,245.073,235.317,245.073z M255.981,210.724l12.221,19.368h-24.44L255.981,210.724z"/>
<path d="M392.761,416.205c-9.865,0-19.165,4.449-25.373,11.888l-65.827-38.006l65.822-38.002
	c17.028,20.476,50.303,13.239,57.219-12.57c2.281-8.511,1.111-17.401-3.295-25.032c-3.06-5.3-7.484-9.59-12.774-12.471
	c0.151-6.02-1.352-11.995-4.412-17.296c-4.406-7.631-11.52-13.09-20.032-15.37c-17.605-4.721-35.683,5.712-40.402,23.327
	c-1.789,6.677-1.454,13.587,0.904,19.945l-88.606,51.157l-88.609-51.156c5.403-14.567-0.136-31.704-14.467-39.976
	c-5.013-2.894-10.709-4.424-16.471-4.424c-18.406,0-33.47,15.186-33.005,33.795c-22.475,12.237-23.077,44.616-0.7,57.533
	c14.115,8.151,31.703,4.683,41.843-7.464l65.831,38.006l-65.819,38c-9.916-11.965-27.523-15.731-41.853-7.459
	c-22.342,12.896-21.811,45.283,0.699,57.533c-0.644,25.658,27.159,42.26,49.475,29.372c14.306-8.259,19.881-25.378,14.468-39.975
	l23.328-13.468c3.582-2.068,4.81-6.649,2.741-10.232c-2.069-3.583-6.65-4.81-10.232-2.741
	c-31.591,18.239-32.068,17.595-33.04,21.835c-0.465,2.028-0.066,4.159,1.103,5.88c6.027,8.877,3.051,20.585-5.858,25.727
	c-13.616,7.867-29.915-4.335-26.592-19.455c0.831-3.783-1.359-7.576-5.051-8.748c-9.02-2.86-14.474-12.366-11.941-21.822
	c4.256-15.88,26.208-18.357,33.606-3.133c0.909,1.87,2.555,3.278,4.542,3.887c1.987,0.608,4.14,0.366,5.939-0.675l212.317-122.582
	c3.768-2.176,4.891-7.098,2.452-10.692c-0.292-0.43-0.549-0.814-0.732-1.13c-4.977-8.618-2.03-19.622,6.591-24.598
	c13.39-7.733,29.973,4.072,26.591,19.453c-0.832,3.782,1.357,7.575,5.048,8.747c4.291,1.362,7.894,4.26,10.146,8.158
	c2.405,4.166,3.043,9.019,1.799,13.665c-4.129,15.41-24.976,18.22-32.982,4.355c-0.184-0.32-0.381-0.721-0.619-1.212
	c-0.907-1.873-2.552-3.284-4.541-3.895c-1.989-0.61-4.143-0.368-5.944,0.673c-3.867,2.233-150.991,87.174-152.561,88.08
	c-3.582,2.068-4.81,6.649-2.741,10.232c2.068,3.582,6.65,4.811,10.232,2.741l35.008-20.212l88.605,51.157
	c-5.401,14.565,0.136,31.703,14.467,39.975c15.835,9.143,36.002,3.625,45.063-12.073c3.061-5.301,4.564-11.277,4.413-17.298
	C438.336,461.942,426.863,416.205,392.761,416.205z M135.433,338.781c-4.614,9.525-16.203,12.992-25.211,7.79
	c-13.439-7.757-11.419-28.003,3.554-32.757c3.691-1.172,5.88-4.965,5.048-8.747c-2.479-11.275,6.167-21.869,17.612-21.869
	c14.218,0,23.078,15.999,14.839,28.145c-1.168,1.722-1.568,3.852-1.103,5.88c0.464,2.027,1.753,3.771,3.554,4.812l87.274,50.387
	l-15.617,9.016l-79.466-45.878C142.176,333.398,137.343,334.841,135.433,338.781z M408.335,458.201
	c-2.252,3.9-5.854,6.796-10.143,8.156c-3.692,1.17-5.883,4.964-5.051,8.748c2.483,11.298-6.187,21.873-17.611,21.872
	c-13.738,0-22.525-14.973-15.575-27.015c0.189-0.328,0.454-0.718,0.734-1.13c2.444-3.601,1.309-8.521-2.453-10.693l-87.272-50.388
	l15.617-9.016c86.081,49.7,81.069,47.875,85.406,46.547c3.604-1.105,4.536-4.016,5.155-5.09c3.208-5.557,9.192-9.008,15.618-9.008
	C406.531,431.186,415.273,446.182,408.335,458.201z"/>
<path d="M170.163,234.462v39.022c0,12.229,9.948,22.177,22.177,22.177c9.969,0,17.026,1.026,24.478-5.574
	c3.914,3.466,9.059,5.574,14.687,5.574c9.968,0,17.026,1.026,24.478-5.574c7.449,6.597,14.503,5.574,24.478,5.574
	c5.628,0,10.773-2.107,14.687-5.574c7.449,6.597,14.503,5.574,24.478,5.574c12.229,0,22.177-9.948,22.177-22.177v-39.022
	c29.993-25.353,47.12-62.147,47.12-101.521c0-13.627-2.06-27.078-6.123-39.977c-1.242-3.946-5.449-6.137-9.395-4.895
	c-3.946,1.243-6.137,5.449-4.894,9.395c14.197,45.079,0.453,96.13-38.879,127.614c-1.776,1.421-2.81,3.573-2.81,5.847v42.558
	c0,3.969-3.228,7.197-7.197,7.197h-9.791c-3.969,0-7.197-3.228-7.197-7.197c0-4.137-3.354-7.49-7.49-7.49s-7.49,3.354-7.49,7.49
	c0,3.969-3.228,7.197-7.197,7.197h-9.791c-3.969,0-7.197-3.228-7.197-7.197c0-4.137-3.354-7.49-7.49-7.49s-7.49,3.354-7.49,7.49
	c0,3.969-3.228,7.197-7.197,7.197h-9.791c-3.969,0-7.197-3.228-7.197-7.197c0-4.137-3.354-7.49-7.49-7.49
	c-4.137,0-7.49,3.354-7.49,7.49c0,3.969-3.228,7.197-7.197,7.197h-9.791c-3.969,0-7.197-3.228-7.197-7.197v-42.558
	c0-2.275-1.034-4.426-2.809-5.847c-28.159-22.54-44.31-56.123-44.31-92.138C138.023,67.896,190.94,14.98,255.983,14.98
	c39.626,0,76.39,19.743,98.344,52.811c2.289,3.446,6.938,4.385,10.382,2.098c3.446-2.288,4.386-6.937,2.098-10.383
	C342.07,22.245,300.64,0,255.983,0C182.68,0,123.043,59.636,123.043,132.939C123.043,172.315,140.17,209.109,170.163,234.462z"/>
<g>
</g>
<g>
</g>
<g>
</g>
<g>
</g>
<g>
</g>
<g>
</g>
<g>
</g>
<g>
</g>
<g>
</g>
<g>
</g>
<g>
</g>
<g>
</g>
<g>
</g>
<g>
</g>
<g>
</g>
</svg>
