<svg xmlns="http://www.w3.org/2000/svg" version="1.1" xmlns:xlink="http://www.w3.org/1999/xlink" width="512" height="512" x="0" y="0" viewBox="0 0 128 128" style="enable-background:new 0 0 512 512" xml:space="preserve"><g><path fill="#d7a30c" d="m127.8 68.7-.1-.4V68l-4.8-14.2.1-.6v-.1l-.1-.2v-.1c0-.2 0-.3-.1-.5l-.2-.3.4-2.8v-.1l-.1-.2v-.2c0-.2 0-.3-.1-.4l-.4-.5.2-3v-.1l-.1-.1v-.3c0-.2 0-.3-.1-.4l-.5-.6v-2.5l-.1-.1v-.4c0-.2-.1-.3-.2-.4l-.8-.8-.1-2.3h-.1v-.6c0-.2-.1-.4-.3-.5l-1-.8-.3-2.1v-.1l-.1-.5c0-.2-.1-.3-.2-.4l-1.3-1-.5-2.3c0-.2-.1-.3-.3-.4l-1.5-1-.6-2.3c0-.2-.1-.3-.3-.4l-1.4-.8-.7-2.1c-.1-.2-.2-.3-.3-.4l-14.1-6.8-.4-.6c-.1-.1-.2-.2-.4-.3l-.5-.1-2-2.3c-.1-.1-.2-.2-.4-.2l-1-.1-1.8-2.1c-.1-.1-.3-.2-.4-.2l-1-.1-2.2-2.2c-.1 0-.3-.1-.4-.1h-1.5L84 4.6c-.1-.1-.3-.2-.4-.1l-1.5.1L80 3c-.1-.1-.3-.1-.4-.1L78 3l-2.1-1.3c-.1-.1-.3-.1-.5-.1l-1.1.2L71.9.4c-.1-.1-.3-.1-.5-.1l-2 .6-2-.9H67L52.5 5.3l-.7-.1h-.2c-.1 0-.1 0-.2.1l-.4.3-3.2-.4c-.2 0-.3 0-.4.1l-1 .8-2.8-.1c-.2 0-.3 0-.4.2l-.7.6h-2.9c-.2 0-.3.1-.4.2l-.8.8-2.8.2c-.2 0-.3.1-.4.2L34 9.6l-2.5.4c-.1 0-.2 0-.2.1-.1 0-.1.1-.1.1l-.9 1.3-2.4.5c-.2 0-.3.1-.4.3l-.6 1-2.6.7c-.2 0-.3.1-.4.3l-1 1.8-1.9.7c-.2.1-.3.2-.3.3l-6.3 13.6-.7.5c-.1.1-.2.2-.3.4l-.2.9-2.4 1.9c-.1.1-.2.2-.2.4l-.1.9L8 38.1c-.1.1-.2.3-.2.4v.9L6 41.3c-.1.1-.2.3-.2.4l.1 1.8-1.5 1.8c-.1.1-.1.3-.1.4l.1 1.4-1.6 2.2c-.1.1-.1.3-.1.5l.2 1.4-1.4 2.1c-.1.1-.1.3-.1.5l.4 1.5-1.1 2.1c-.1.1-.1.3 0 .5l.5 1.7-.9 1.9c-.1.1-.1.3 0 .5l5.4 14.1-.2 1.2c0 .2 0 .3.1.5l.6.9-.3 3.1v.2c0 .1.1.1.1.2l.4.4-.1 3.1c0 .2.1.3.2.4l.9 1 .1 2.6c0 .2.1.3.2.4l.7.7.3 2.9c0 .2.1.3.2.4l1.4 1.1.3 2.1c0 .2.1.3.2.4l1.2.8.6 2.4c0 .1 0 .1.1.2 0 .1.1.1.2.1l1.4.9.7 2.4c0 .2.2.3.3.4l1.8.9.8 2c.1.1.2.3.3.3l13.3 5.8.8 1.2c.1.1.2.2.4.2l.6.1.1.1h.2l2 2.4c.1.1.3.2.4.2h.5l.1.1h.1l.6.1 1.9 2c.1.1.3.2.4.2h.4l.1.1H40.9l1.8 1.7c.1.1.3.2.4.2h.4l.2.2h1l1.7 1.3c.1.1.3.1.4.1h.3l.2.2h.1l1-.1 2 1.4c.1.1.3.1.5.1h.2l.3.2h.1l1.1-.2 1.9 1.2c.1.1.3.1.5.1h.1l.3.2h.1l1.8-.5 1.2.6c.1.1.3.1.5 0h.1l.4.2h.1l1.7-.6 1.7.8c.1 0 .2.1.2.1h.2l.4.2h.1l13.6-5.5 1.9.3h.1l.9-.6 3 .3h.1l1-.8h2.9v-.1l.1.1 1-1 2.9-.1h.1l.7-.8 3.2-.3.1-.1 1.1-1.4 2.8-.5.1-.1.9-1.4 2.2-.6.1-.1 1.1-2 2.4-.8v-.1l.1.1.9-1.8 2.2-.9-.1-.3-1.9.8 1.5-.6c.1-.1.3-.2.3-.3l5.2-12.3 2.2-1.6.1-.1.1-.9 2.6-2.2.1-.1.1-1.7 1.8-1.8V87.3l2-2.2V85l-.1-1.7 1.7-2.2V81l-.2-1.3 1.7-2.6V77l-.4-1.9 1.2-2V73l-.1-.5v-.1l-.4-1.4.9-1.9zm-125.4-9v-.3L2 58.2l1-1.8.3 1.4zm.6-4.2v-.2l-.2-1L4 52.4l.2 1.2-1.1 2.1zm2.5-9.1 1.4-1.7v1l-1.3 1.8zm1.6-4 1.7-1.7v1.4L7.2 44zm7.5-9.3.1-.7.4-.3-.4.9zm16.9-20.7 1.9-.4c.1 0 .2-.1.3-.2l.3-.3c.1-.1.1-.3.1-.4l.4-.1-.8.9zm7.4-3.3-1 1.1-2.7.4 1.1-1.3zm4.1-1-.5.5-2.8.2.6-.7zm3.6-.6-.4.3h-2.5l.5-.5zm78.9 62.8.4 1.6-.2.5-3.2-15.7 1 3.1 2.5 9.1-.5 1zm-.7 6.4-.2.4-.2-1.4.5-1.1.3 1.4zm-1.2 3.3-.5.6v-.5l.4-.7zm-1.6 3.9-.6.7v-.2l.6-.9zm-26.3 32.5c-.1 0-.3.1-.4.2l-.1.1-.8.2 1-1.1 2.9-.9-.9 1.2zm-43.5 8-.7.1-.7-.5 1.4-.2 2.4 1.2-.7.1-1.3-.8c-.1.1-.3 0-.4.1zm-4.7-1.4-.4-.3h.8l.5.3h-.2zm-3.5-1.6-.7-.5h.7l.7.5h-.2zm-3.5-1.9-.8-.8h.6l1 .8h-.2zm-.5 0h-.3l-.8-.8h.2zm-5-3.9-.2-.2.1.1.2.2zm.5.4 1.1 1.1h-.3l-.9-1.1zm-17.4-10.8c0-.1-.1-.2-.2-.3l-.4-1.1 12.1 7.5.4.7h-.1l-11.6-6zm-.6-.4L16 104l-.4-1.2 1.4.9zm-4.7-7.9.9.7.3.9-.1-.1c-.2-.1-.4-.1-.6-.1 0 0-.1 0-.1.1zM4.2 52l1.4-2.1.1 1-1.3 2.3zM74.7 3.2l2 1.1-1.6.2-2.1-1zm45.8 39.1-.3-.4-.3-2.1.6.6zm3.8 32.9-2.1-16.6.2-.9 3 15.1zm-.8 3.7-.4.7-.1-1.2 1.1-2.2.2 1.3-.7 1.1c-.1 0-.1.1-.1.3zm-3.7 7.5v-.7l1.3-2.3v.9zm1.4-1.5-.2.3zm-11.1 15.8-.9.5.4-.6.8-.5v.1zm-6.4 9.6-.2.2-.4.7-.6.9-2.4.9 8.7-11.3 1-.5zm-4.6 4.1.7-1 2.4-1-.8 1.2zM7.8 79.8l.4.5.1 3.3-.6-.7zm-.3-1.1v.3zM55.9 7l.7-.4.8.2-1.2.2zm62.4 29.8.1.5-.7-.7-.7-2.7 1 .8zM9.8 85.5v.1zm87-70.2c0 .1.1.1.2.2l-.4-.2-.3-.3.4.2zm5.7 6.3.1.1-.5-.5zm18.8 26.7.2.2v1.3l-.1-.3zM121 65v-.1l.1-.2zm-34.1 53.4-2.7.9 18.2-13.5.5-.2-14.5 12.2zm-20 2.9-.1-.1h.3zM44.4 9.9l3.6-.8L27.9 23h-.2l-.1.1v.1l-1.3.9 17.4-14zm60.5 15.2.2.5-.7-.9.2.1zM81 120.3l-2.4.4 22.5-14.5.4-.2-18.1 13.5zm-40.4-2.7-2.3-1.2 24.1 3.8.5.2-19.7-1.7zM9.2 62v-.3l.1-.2-.1.3zm9.4-31.4 1-.9-9 28.3 6.1-25.1zM49.9 8.7l3.4-.5-23.9 14.1L48.7 8.9zm53.2 95.9-3 1.6 15.4-28.9L104 104zM30 109.9l-1.6-1.6-.8-1-.4-.6 29.3 11.1.5.2zM8.3 76l-.1-3.5v-.1l13.6 25.5.2.7L8.3 76.5zm1-12.7 11.3 30.9-12-26.6.1-1.2.5-2.7zm.3-1 .6-1.9.5-1.3L20 91.4 9.4 62.8zm85-47.4 1.3 1 1.4 1.2-27-7.2 23.2 4.3zM21.3 95.1l28.1 18.1 1.4 1.1-28-15.4-.5-1.2zm-2-11.8v-.4L39.1 103l2.8 3.4-22.1-19.5zm14.2-62.4L59.1 8.1l2 .1 1.8.3-27.4 11.7h-.1l-.1.1-.6.3zm65.4-2.4.5.5 1.3 1.4-27.6-9.2-.9-.5 25.5 6.8zm5.1 6.6 1.5 2.7-28.8-14.5-.4-.3 27.2 11.3zm4.8 11.1L80.2 15.8l27.4 16.4 1.2 3.7zm5.3 42-.7 1-2.7-29.9v-1.2l-.2-.2-.2-2.5 5.2 30.5zm-55 40.2-2.8-1.3 32.1-7.3 1.4-.2-29.8 9.1zM18 47.5l2.1-2.3-.7 31.1-.2 2.6.2.2-.1 2.6-1.7-33.6zm52.9-36.7.2.1-31.9 8.4 28.1-9.7zm39.1 34 .1 2.6L90 25.7l19.9 18.7zm-21.6 64.7L108 86l.6-.5v-.2l.4-.4 1.4-1.4-18.2 25.2zm-5.2.2h-2.1l22.5-19.9-19.5 19.8zm25.6-25.1-.1.1 1.5-27.5.5 25.1zM30.1 35.8l17.3-16.5 3.2.1zm-6.5 6.9.6-.6 27.4-21.9 35.5 4 22.4 24.4-2 36.3-27.6 24.4-36.2-2.8-.1-.1-23.2-27.9zM59 19.8l25.9 1.1 1.8 2zm-9.5-.7h1.6l-.1.1zM27.6 37.8l-3.4 2.7 19.1-21.2 3.7-.1zm-5.3 5.1-1.5 1.4 1.5-1.7zm-2 2.3 2-1.9-2.6 28.8zm50 64.5h-24l-2-2zm36.3-22.4-18.5 22-3.5.3zm4.4-4.7v-.1l.7-.8zm0-.6-.6-28.5.1-2.3 2.6 28.2zM87.5 23.4l-.1-.2v-.1zm-.4-.4-.6-.7.7.7zM55 19.4l-2.8-.3 29.9-.9 2.7 2.5zm-8.7-.4 32.6-3.6 3.1 2.5zm30.8-5.1 1.6 1.1-35 3.9 31.8-6 .6.3zm-5.5-2.8 3.4 1.7-34 6.4zM40 19.7l3.1-.3-20.7 22.8-2.2 2.4 19.2-24.8zM19.6 79.4l17.4 21-17.5-17.7zm24.2 28.3 2 2-2.4-2.1zm2.3 2.3h27.8l3 .2-27.9 2.3-.3-.3zm3.3 2.8 29.3-2.4 1.6.1.3-.3 2.6-.2h1l2.7-.2-34.3 5.2-3-1.9zm5.8 3.8-2.3-1.5 31.8-4.8-28.8 6.6zm39.7-8.6-2.2.5 19.5-27.1-16.1 26.2zm15-64L83.6 19.2l25.8 21.1.3 1.6zM81 16.7l27.7 19.7.6 3.5zm24.8 11.6 1.5 3 .2.6-28.2-17zM72.1 10.8v-.1zm-5.2-1.3L37.5 19.7l25.9-11 2.3.4zM35.7 20.6l1.5-.4 1.7-.3-21.1 27.4-.3.4 17.9-27zM17.2 48l-.1.2zm.1.4 1.6 31.3-3.8-28.6zm28.2 61.4L20.3 90.6l-.4-3.3zM23 99.3l27.8 15.2-26.2-12-1.2-2.2zm2.5 4.9-.7-1.3 29.4 13.5.5.3-27.8-10.5zm37.8 15.6-1.3-.4-1.5-.6 31.2-9.6.4-.1.1-.1 1.3-.4-30 11.2zm36.4-13.4-.4.2-1.3.5-1.5.5 17.9-29.2.9-1.2zm16.1-30.3.3-.5zm1.5-3.1-1.6 2.6-5.7-33.7-.1-1.5-.1-.1-.1-.1-.3-1.8 8.1 34.2zm-7.4-33.7 9.4 29-.2.7-1.4 3.2zm-.8-3.4-.1-.5 11.4 28.8-1 3.6zm11.4 27.9-11.5-29 12.2 25-.2 1.7-.3 1.6zm.8-4.5-13-26.5v-.2l13.1 23V58.9zm0-6 .1 1.7-14.2-24.8-.2-.5 14 20.8zm-18.1-29.4L74.6 12l26.5 8.8.6.8zM72 10.7l-.4.1-.3-.1-.7-.4zm-5.9-1.9-.6-.2h.3zM32.2 21.2l-.7.2L54 8.1l.8-.1h.4l3.2.2zm-1.1.6-.8.4H30l1.2-.7zm-.5.8-17 30.1 13.9-28.8zm.5-.2 2.6-1.1 1.2-.4-20 30.1zM12.9 54.5l2-2.9 4.2 31.8.1 2.1-6.4-30.6zm6.7 32.6.1.6zm.7 3.9 26.3 20-25.4-16.3-.2-.7zm1.1 5.5L8.2 71.9l.4-3.8zm1 2.5.1.2.2.5-.5-.7zm35.8 19.6.3.2-24.7-5.5-.3-.2-2.9-2.7zm3.1 1.1L37.6 116l-3.3-2.3zm4.7.7-2-.4 31.7-11.8-27.6 12.6zm33.5-13.5L78 120.8l-4.5.2 25.8-14zm21.3-57.4v.4l-14.1-21.2-.1-.4-.1-.1-.2-.1-.3-.8L119.6 45l.3.9zM105.6 27l-.4-.7-.2-.3.5.6zM95.5 15.2l-.6-.5.4.2.5.5zm-5.2-3.1 2.7 1.7-24.3-4.5-.5-.3h-.1l-.3.1h-.2l-.8-.3 22.1 2.7zM60.8 7.8h.4l.3.1zM26.1 24.6l.8-.4.3-.1L13 53.3 24 26zm-14.4 32 .8-1.4 7.4 35.1-9.1-31.6.7-1.7zm-3.5 10 .1-.4zm0 1.2-.1.5v-.2zm-.1 2.3v.3-.2zm1 11.1-.7-4 14.5 23.4zm54.2 39.1h.3l.3.1-.9-.1zm5.3.6 27.9-12.7-23.7 12.9h-2.1l-1.8-.2zm35.7-16.6.4-.3-.3.2zm3.1-2.2.1-.1-.2.2-.2.1zm3.7-4-2.8 2.8 9.5-26.8zm-3.3 3.2-.4.4-1.3 1-1.6 1.1 12.6-29.4.6-1.1zM119.5 69l-.1.4-.2.4zm-13.8-42.6-.3-.7 12.3 13.9 1.5 4.6zm-3-4.2.3.3.1.2zm-6.5-6.8.1.1.3.4zm-.8-.8h.2l.1.1zm-7.7-4-2.5-1.2h.4zm.4.5L66.5 8.5l18 .9zM49.8 8.4l-.4.1.2-.1.9-.1zM23.3 26.5l.3-.2-12.3 30.4L20 29.2l1.7-1.5zm-7 6.9-6.3 26 4-22.8.2-.3 1.7-2.4zM9.5 60.6l-.2.3 2-20 .4-1 1.8-2.8zM8.7 64l-.5 1.6v-.4zm-.8 11.8v-.2zm.1 2.1v.3l-.2-.7v-.4zM9.9 84l-.3-.9-.3-1.2 14.2 19.9.2.5.1.1.3.1.4.5.1.3-13.7-16.4zm15.9 21.4-.2-.2v-.1zm6.3 7 .4.4-.5-.3-.3-.4zm32.7 8.4.3.1-17.6-.3-3.7-1.6zm1.1.1.2.1H66zm37.7-15.9-.4.1h.1zm2.7-1.8.5-.3-.4.5-.5.2zm1-.5-.1.3-.2.1zm4.2-5.1 7.3-26.5.4-.8-4.9 23.9-1.5 2zm5.3-7.3-1.5 2.6-.6.8 5-24.3.1-.2V69l.4-1.7.1-.3-3.2 22.9zm4.2-26.4.1-1v.7zm.6-3.2.1.9-.1.4zm-3.4-20.5.1.1.3 1.1zm-.2-.7-1.1-3.2.5.5.8 3zm-.5-.6-12.4-14-.1-.2-.1-.1-.2-.1-1-1.2-.2-.3 12.9 12.7zm-14.3-16.6-.1-.3 12.3 10.5.9 2.6zm-2.5-2.7-.2-.4.4.3.2.4zm-1.5-1.7.1.2zm-1.5-1.3-.6-.7.4.2.5.7zm-4.5-3.4-1.7-1.4.7.1 1.7 1.7zm-1-.4-.2-.2-1.3-.9h.3zm-1.9-1.1-.2-.1h.1zm-.9-.5-.1-.1-2.6-1.7h.6l2.3 1.7zm-4.8-2.1-3.5-1.7h1l3 1.7zm-.7 0-18.7-1-.6-.3h-.1l-.5.3h-.5l-.9-.3 17.8-.3zM56 7.5l-.8.1h-.4l.8-.2zm-5.2.5h-.3.1zm-2 .6-.6.1.8-.3zm-5.9 1.8L25.3 24.5l14.2-12.9zm-2.9.8.3-.3 2-.6zM22.5 26.7l-.1.1-.5.4.1-.2zm-5.1 4.6-.3.3.1-.2.3-.2zM15.3 34l-.6.9-.5.6.5-.9zM9 61.7l-.1.2H9h-.1l.1.2-.2.9-.6 1.4.6-18 2.1-4.6zm-1 3.4-.1.2-.5-15.6L8.6 47zm-.2 5.2v.2l-.1-.5.1-.3zm0 8 .3.9v.2l-.3-.8zm3.3 9.7 1.2 3.2-.3-.3zm.4 2.5-.3-.3-.7-2.9zm-.2-2.8L25 104.3l.1.3-12.3-12.8zm14.1 17.7.1.3-11.4-10.5-1-2.7zm.7.8.2.2.1.1-.5-.4zm2.2 2.5.4.6-.3-.2-.3-.5zm2.5 2.8.5.6-.3-.2-.4-.5zm1.1 1.3h-.3l-.2-.3zm.8.5.6.3.3.3-.6-.3zm1.5.9.5.3-.4-.2zm7.2 4.1.5.3h-.1zm1.2.6 3.3 1.7h-.7l-2.8-1.7zm1.8.6 2.5 1.1h-.4zm3.2 1.4 2.9 1.3h-.9l-2.5-1.3zm.7.1 17.7.3.4.1-15.4.8zm19.8.3h.2zm2.5.2.6.1H71l-.5-.1zm2.9.1h.3-.5zm1.4.1h.3l-.3.1-.5-.1zm3-.5.4-.1h.1zm7.5-1.9 1.6-.7.7-.2-.5.4zm18.3-14.1.1-.1.1-.1-11.3 11-3.4 1.4zm1.5-1 .6-.3-9.6 10.7-2.8 1.1zm1.3-.6.9-.4-7.7 10-2.8 1.1zm1.2-1.2.5-.3-.8 1zm.3-.5.3-.4.6-.4-.3.4zm2.3-2 .4-.3v.1l-.4.3zm1.2-1.6.8-1 .5-.5-.6 1zm6-9.3 3.2-23.1.3-.6-1.3 19.3zm2.1-3.6v.3l-.7 1.2zm1.7-21.7-.1 17.8L120 84zm.3-.9.2-.6.9 16.1-1.3 2.6zm.3-4.2v-.2.1zm.2-1.1.1-.5.1.2-.2.6zm0-1.3v-.5.2zm-1.1-7.7-.1-.2-.2-1.8.2.2zm-.7-2.9-.8-3.9.4.4zm-.4-.5-1.2-4.3.4.5zm-1.3-4.9-.8-3.1.6.6.1.5c0 .1.1.3.2.4l.4 2.1zm-1.4-4.1-.5-.5-.9-2.7.7.6zm-1.6-3.7-.8-2.5.9.7.7 2.5zm-.4-.4-12.4-10.7-.1-.3-.1-.1-.3-.1-.6-.5-.3-.5 13 9.6zM101 19.4l-.2-.4 12.8 8.3.7 1.9zm-.5-.5-.5-.4-.2-.3.5.3zm-1.8-1.7-.6-.8.3.1.5.7zm-1-1.3.3.1.1.1zm-3-2-2.1-2 .6.1 1.9 2.2zm-3.6-2.5L89 9.6l1 .1 1.9 1.9zm-.5 0-.4-.1-2.4-1.8h.7zm-3.2-2.1-2.5-1.9H86l2.3 1.9zm-.5-.1h-.7l-2.8-1.8h1zm-1.7-.4-2.5-1.4h.3zm-3-1.6-2-1.1h.6l1.8 1.2zm-.5 0h-1.1l-2.1-1 1.3-.1zm-1.8 0-18 .3-.2-.1 16.2-1.2zM61 7.2l-.4-.1 14.5-2.2L77.4 6zm-.8 0H60l.5-.1zm-.8.1-.9.1.7-.1zm-1.9 0-.6-.1 1-.2.6.2zm-18.2 4.1-3.5 1.3.7-.7 3.2-.9zm-.6.5-14.2 13-.4.2H24v.2l-.7.3 12-12.5zM22.6 26l-.3.1L32 14.4l2.7-1zm-.6.6-.1.1-.1.1.1-.1zm-1 .7-.4.2.1-.2.5-.3zm-.9.8-.1.3-.4.3zm-.7 1.1-.2.2-.2.2.2-.2zm-1.2 1.1-.4.4.3-.5.5-.3zm-1 .7.1-.3.2-.1zm-2.7 3.4-.2.2v-.1zm-.6 1.1-.1.3zm-4.2 8.4-.8 1.8v-.3zm-.8.8v-.2l.7-1.1zm-.3 1.6L7.4 49v-.7l1.3-2.4zm-1.5 3.3L6 51.9l-.1-1L7 48.8zm0 .6.6 17.1-.2.6-1.4-15.4zm.6 17.9v.5l-.1.4v-.5zM7.4 70l-.1.3-.1-.1-.1-.4.2-.5zm0 1.1.1.2v.5zm.3 3.1v.7l-.3-.9.1-.6zm.7 6.9.3 3.1-.2-.2zm.4 1 .3.8.4 2.2-.5-.5zm.8 3.6.6 3.3-.8-.8-.3-3.1zm.4.4.9 3.6-.4-.4zm1 4.2.6 2.6-.6-.6-.4-2.5zm.4.4.4.4.8 2.7-.6-.6zm.7.8.4.5 1.1 2.8-.6-.7zm1.8 3.9 1.1 2.9-1-.8-.9-2.8zm.5.4 12.5 11.5.4.8-11.8-9.4zm13.3 12.5.1.2zm.6.9.1.2h-.1l-.1-.3zm.7.7h.1l.2.2.1.1zm.9 1 .5.7-.6-.4-.4-.7zm.9 1.2.3.5-.6-.3-.4-.6zm3.1 2.3-.4-.1-.2-.2zm.4.3.2.2zm.6.3.6.3.2.2-.6-.3zm3.7 2 2.1 1.5h-.4l-1.9-1.5zm2.5 1.8 2.5 1.8h-.7l-2.3-1.8zm.6.1 2.9 1.8h-.4zm3.3 2 2.4 1.5h-.7l-2.1-1.5zm.6 0h.8l2.6 1.3-1.1.1zm3.9 1.6 2.2 1.1-1.4.1-2-1.2zm.6 0h.9l2.4 1-1.2.1zm1.5-.1 16.5-.8.7.2-14.9 1.6zm17.4-.9h.5l.7.1-.6.1zm2 .4.3.1-.4.2-.6-.2zm1.1-.1.2-.1.5.1-.4.1zm1.5.1.8.1-.2.1-.3.1-.8-.2zm9.3-1.6.2-.1 1-.2v.1zm.2.2h-.2zm4.1-1.3 3.1-.8-.3.3zm.6-.5.6-.5 3.2-1-.8.8zm2.9-1.6 1.4-.6-.2.2zm2.1-.8 2.9-1.2-.5.6-2.7.9zm3.6-1.4 2.9-1.2-.7.9-2.8.9zM111 99.5v-.2l.1-.1zm1.4-1.6-.1.1zm2.2-3.3.1-.2.1-.1-.1.2zm1.4-2 .1-.3.2-.3.5-.7v.4zm2.8-4.2.6-1v.1zm.6-.4v.1l-.3.3zm-2.1 2.1 2.2-3.8v.6zm2.6-5v-.4l1.3-2.6v.7zm1.6-3.5 1.3-2.7.1 1.1-1.4 2.4zm1.5-3.8-.9-16.2.1-.4v-.1l-.2-.4-.1-1.1.1-.4 2 16.4zm-1.8-31.7-.1-2 .2.3zm-.6-2.4.1.1.1 2.5-.2-.3-.5-3.6.3.3v.6c.1.1.1.3.2.4zm-1.2-4.9v.5c0 .1 0 .2.1.3l.3 2.1-.4-.5-.5-2.3h.3c.1-.1.2-.1.2-.1zm-1.7-6.3.1.6zm-1.5-1.3c0 .1.1.3.2.4l.9.7.4 2-1-.9-.7-2.5.1.1zm-.3-.8-.4-1.6.3.2.3 1.5zm-1.9-2.7c0 .1.1.3.3.3l.9.6.4 1.6-1-.7-.7-2zm-.2-.7-.6-1.7.2.1zm-2.1-2.7c0 .1.1.3.3.3l.9.5.6 1.7-12.9-8.4-.3-.5-.1-.1-.8-.2-.5-.7 12.8 7.2zm-13.2-7.9-.1-.2 12.6 6 .5 1.5zM93.6 12l.1.2zm-3.2-2.3h.1l.9 1zm-1.7-.4-2.3-2h.7l2 2zm-4.2-2.2-1.7-1.3.7-.1L85 7zm-.4 0h-1L81.2 6l1.1-.1zm-4.4-2.9 1.9 1.4h.1l-.7.1-2.1-1.4zm-1.4.2 2.1 1.3h-.6l-2.2-1.3zm1 1.4-1.4.1-2.3-1.1 1.5-.2zm-4.6-1.1L59.3 7l-.7-.2 14.1-3.1zM58 6.6l-1.4-.4h-.1l-1 .6-.7-.1 15.1-4.4 2.3 1.1zm-2.9.5L54 7h.2zm-.4.2-.9.2-1.5-.1 1.1-.3zm-3.3.1h-.3l1.1-.4.4.1zm-3.1.7-2.3.2.3-.3h2.4zm-.9.4-1.3.5-1.1.1.6-.5zm-3 .7-2.7.4.8-.8 2.6-.2zm-.4.4-1.7.4-1.5.3.4-.4zm-3.7.9-3 .7.6-.7 2.9-.4zm-2.1.7-1.4.4.1-.1zm-1.9.6-2.8.8.3-.4 2.6-.6zm-.4.4-.7.8-2.8 1 .8-1zm-4 1.9-2.3.9.9-1.2 2.3-.7zm-.4.5-9.8 11.9-.7.3 8.3-11.4zM19.9 27.9l-.7.4 7.6-12 2.1-.8zm-.5.6-.4.7-.6.4.4-.7zM17.8 30l-.5.3.2-.6.8-.5zm-.8.5-.2.1.3-.5zm-.1.4-.1.4-.6.5.4-.7zm-.3 1-.3.4-.7.7.3-.5zM15 33.6l-.3.3.3-.6.4-.3zm-2.2 3.6-1.2 1.4.1-1 1.7-1.7zm-.5 1-.2.4-.6.9v-.3zm-1.1 1.7-2.2 3v-.7l2.2-2.7zm-.1.5v.1L9 44v-.6zm-2.4 4.1-1.4 2.2v-.8l1.4-2zm0 .5v.3l-1.3 2.5v-.6zm-1.6 3.3L6 50.4l-.1-.9L7 47.6zm-1.4 3.1.1 1.1-1.1 2.4-.2-1.2zm.2 1.6 1.4 15.6-.2.6-2.3-13.9zm1 16.7-.1.2v.1l.2.2.1.9-.2.9-3.3-14.1 1-2.1zm.4 2.1.1.8-.1.8-.2-.8zm-.2 2.3-.1.4-.3-.5.2-.7zm.1 1.1.3.5-.1.6-.3-.9zm.2 1.8v.5l-.4-1 .1-.5zm-.1 1.1s0-.1-.1-.1l-.4-.5.1-.3zm0 2.2.1-.9v1.1c0-.2 0-.2-.1-.2zm.3 3 .6.7.1 2.4-.8-.8zm.9 1.1.2.3.3 3.2-.4-.4zm.6 3.9.2 1.7-.6-.5-.1-1.7zm.3.3.8.9.4 2.5-1-.9zm1.3 3.9.3 1.9-1.2-1-.2-1.9zm.4.3.6.6.7 2.8-.9-.7zm1 .9.6.6.9 2.9-.9-.7zm2.4 5.3c0-.1-.1-.1-.1-.2l-.3-.9 1.1.9.7 1.8-1.1-.8zm1.1.1 11.9 9.5.2.4-11.4-8.1zm13.2 11 .5.8-12-7.4-.8-2.1zm-2.8.3-7.2-3.2-.3-.7zm7.1 3.9-.3-.4zm4.3 2.2 2.4 1.9h-.5l-2.2-2zm5.1 4.1h-.1l-.7-.6zm.4.3.7.6h-.2l-.6-.6zm3.3 1.5-.9-.6zm.4.3.5.3h-.2l-.4-.3zm3.3 1.2-.7-.4zm.3.2.8.5h-.2l-.7-.5zm2.4-.3 1.2-.1 2.5 1.1-1.4.3zm1.8-.2 15.1-1.6.8.2-13.5 2.5zm18-1.4.9.2-13.8 3.5-2.2-1zm-.1.7-2.7 1.1-7.1 2.3-1.3-.6zm8.9-1.9h.2l-.1.1zm.8-.1h.8l-.3.2-.7-.1zm6.5-1.7 1.1-.2-.2.2zm1.6-.3.5-.1-.3.3h-.5zm1.2-.6c-.1 0-.3.1-.4.2l-.4.1.4-.4 2.7-.7-.5.6zm0-.5.8-.8 2.8-.9-.9 1zm7.5-3 .4-.1-.1.1-.8 1.2-.5.1zm2.4-.8-.5.2zm1.8-2.1.1-.2v.1zm1.2-1.8 6.1-9.1.2-.1.1-.1.1-.4.5-.7.3-.2-5.8 10zm7.4-11 .2-.4.1-.1-.2.3zm.8-.7-.1.3h-.1zm4.7-6.5 1-1.2v.4zm0-.6.1-.4 1-1.2v.6zm2.6-3.4v-.2l.4-.5v.3zm0-.8v-.2l.3-.5v.2zm1.7-3.2v-1l1.4-2.4v.4L122 82c-.1.1-.1.3-.1.4v.7zM77.5 4.2s.1 0 .1.1l-.5.1-2-1.1.6-.3zM73.9 3c.1 0 .1.1.2.1l-1.5.3-2.4-1.1 1.5-.4zm-4.8-.8c.1.1.2.1.4 0L54.2 6.6l-.6-.1 14-5.1zM53.6 6.8l-.3.1-.5-.1.3-.1zm-1.4-.1.1-.1c.1 0 .1 0 .1-.1h.1zm-1 .2-.6.4h-.1l-3.1-.2.8-.7zm-1.5.7-.2.1h-2.8l.3-.2zm-3.8.4-.4.3-2.6.2.5-.5zm-3.8.9-.9.8-2.9.4 1-1zm-4.6 1.6-.7.7-2.7.6.7-.9zm-4.1 1.8-.4.4-2.3.7.4-.6zm-3.1 1.2-2.2.6.5-.8 2.1-.5zm-.2.4-.9 1.3-2.2.7.9-1.4zm-3.5 2.2-2.4.9.9-1.7 2.4-.7zm-.3.4-7.7 12.2-1.1.6 6.4-12zM16.3 31l-.5.4 6.1-13.3 1.7-.6zm-.3.5-.4.8-.4.3.4-.8zm-1.9 2.8-2.3 2 .1-.7 2.3-1.8zm-.3.7-.1.2-2 2v-.4zm-2.4 2.5L9.1 40v-.7l2.4-2.1zm0 .5-.1 1L9 41.7v-1.3zm-2.7 4.5v.8l-1.5 2v-1zM7 46.2v.9L5.8 49l-.1-1zm-1.5 3.2-1.4 2.2-.2-1.2 1.5-2.1zM4.3 54l.2 1.3-1 2.2-.3-1.4zm-.9 4.3 3.4 14.2-.2.8-4.1-13.1zm3.5 17.1-.1.4v-.2L1.6 62.2l.7-1.6zm4.7 20.5.9.7.2 1-1-.7zm3.5 5.2v-.2l-.2-.6 1.2.8.8 2.1-1.3-.8-.2-.8c0-.1-.1-.1-.1-.2zM35.9 116l.5.1 1.3 1.2c-.1-.1-.2-.2-.4-.2h-.4zm1.9 1.4 1 .9h-.1zm16.5 8.1.7-.1.5.3-.7.2zm2.8-.1c-.1-.1-.3-.1-.4 0l-.8.2-.5-.3 1.4-.3 2.2 1-.5.1zm5.7 1.1 3-1-2.7 1.1zm30.7-8.5.6-.6.8-.2-.5.7zm12.6-8.7 5.8-10.1.2-.1-1.9 4.6-2.5 5zm20.2-40.8-1.1-4.2 1.3 3.9zM67.2 1.2 53 6.4h-.1zM47.8 6.4h.1l-1 .8h-.1zm-4 .8h.1l-.7.6H43h.1zm-3.9.8h.1l-.8.9H39l.1-.1zm-4 1.1h.1l-1.3 1.5h-.2c.1 0 .2-.1.2-.2zM15.2 31.6c.1-.1.2-.1.2-.2l6.2-13.6 1.9-.7c.1 0 .3-.1.3-.3l1-1.8 2.6-.8c.1 0 .3-.1.3-.3l.6-1 2.3-.5c.1 0 .3-.1.4-.2h.1l-.1.3-2.5.5-.1.1-.7 1.1-2.8.8-.1.1-1.1 2-2.1.8-.1.1-6.3 13.8-.8.5v-.2zm-1 1.7.1-.1v.2l-2.5 2v-.2zm-2.7 3.2v.1L9 39v-.2zm-2.7 3.6v.2L7 42.1v-.2zm-1.9 4v.2l-1.5 1.8v-.2zm-1.5 3.6v.2L3.9 50v-.2zm-1.5 4.1v.2l-1.2 2v-.2zm-1.1 4.1v.1l-1 1.8v-.1zm-.6 4.2v.1l-.7 1.6v-.1zm53.2 66.8 1.4-.4zm4 .4 1.3-.5h.1zm4.3.4 13-5.3h.1zm15.6-5.2h-.2l.5-.4h.2zm4-.4h-.2l.7-.6h.2zm4-.8h-.2s.1 0 .1-.1l.7-.7h.2zm3.9-1.2H91l.1-.1.4-.5h.2zm4-1.2H95l.1-.1.8-1h.2zm4-1.9H99c.1 0 .1-.1.2-.2l.6-.9h.2zm3.2-2-.3.1c.1-.1.2-.1.2-.2l.8-1.4h.2zm1-2 .2-.1zm2.6-.8-2 .7 1.6-.5c.2 0 .4-.2.4-.4l.6-1.2.1-.1zm.9-1.9-.1.1zm1.2-1.8.3-.7zm6.5-12.2.1-.2 1.5-1.1.2-.2v.2zm2.2-2.5v-.1l2.2-1.9.1-.1v.2zm2.8-4v-.1l1.5-1.5s0-.1.1-.1v.1zm1.8-3.2v-.1l1.7-1.9v.1zm1.9-4.1v-.1l1.4-1.9v.1zm1.5-3.5v-.1l1.5-2.3v.1zm1.3-4.6 1-1.8v.1zm.7-4.1.7-1.6v.1z" opacity="1" data-original="#020202"></path></g></svg>