<svg xmlns="http://www.w3.org/2000/svg" version="1.1" xmlns:xlink="http://www.w3.org/1999/xlink" width="512" height="512" x="0" y="0" viewBox="0 0 512 512" style="enable-background:new 0 0 512 512" xml:space="preserve" class=""><g><path d="m184 222-34.195-59.842a16 16 0 0 0-17.245-7.707l-18.351 3.933A104 104 0 0 0 32 260.075V352l12.051-60.257A115.822 115.822 0 0 1 112 208l-32 80 39.932-32H184Z" style="" fill="#ffffff" data-original="#ffe3d6" class="" opacity="1"></path><path d="M168 296h16v77.333l-15.59 5.197A24 24 0 0 0 152 401.298V418l-5.82 1.455A24 24 0 0 0 128 442.74V452l-10.977 1.372A24 24 0 0 0 96 477.187V488h264v-25.298a30.713 30.713 0 0 0-24-29.968v-30.846A28.944 28.944 0 0 0 320 376v-86.46a36.805 36.805 0 0 0 16-30.384v-60.508a40 40 0 0 0-19.42-34.3L296 152l8-24h-24a64 64 0 0 0-64 64v24h-40l-47.108 26.919a24 24 0 0 0-11.376 15.017l-5.96 23.842-.47.187A24 24 0 0 0 96 304.25v21.329h48Z" style="" fill="#ffffff" data-original="#b8407e" class="" opacity="1"></path><path d="M256 224a30.491 30.491 0 0 1 7.076-41.307L272 176l11.642 8.732a30.491 30.491 0 0 1 8.978 38.029L288 232Z" style="" fill="#ffffff" data-original="#961b6f" class="" opacity="1"></path><path d="m120 304-19.359 12.906A10.422 10.422 0 0 0 96 325.578 10.422 10.422 0 0 0 106.422 336H120Z" style="" fill="#ffffff" data-original="#a82a74" class="" opacity="1"></path><path d="M270.188 65.304 136 384l-24-8L246.737 56l23.451 9.304z" style="" fill="#ffffff" data-original="#c47220" class="" opacity="1"></path><path d="m272 80 16-32-44.73-19.17A59.738 59.738 0 0 0 219.738 24 59.738 59.738 0 0 0 160 83.738V88a65.349 65.349 0 0 1 83.598-22.2Z" style="" fill="#ffffff" data-original="#a7bdcf" class="" opacity="1"></path><path d="m288 48 24 24-8 16-32-8 16-32z" style="" fill="#ffffff" data-original="#8ea5b8" class="" opacity="1"></path><path d="m336 208 31.317-43.844a16 16 0 0 1 21.405-4.327l22.748 13.999A144 144 0 0 1 480 296.467V368l-12.037-39.12A273.304 273.304 0 0 0 400 216a134.57 134.57 0 0 1 6.248 131.504L400 360v-34.745A109.255 109.255 0 0 0 368 248v72l-32-60.844Z" style="" fill="#ffffff" data-original="#ffe3d6" class="" opacity="1"></path><path d="m224 216-16-8h-32v24a16 16 0 0 0 16 16h32ZM120 336h32a16 16 0 0 0 16-16v-24h-32l-16 8Z" style="" fill="#ffffff" data-original="#ffceb6" class="" opacity="1"></path><path d="M232 319.638V312h-16v7.638a48.257 48.257 0 0 1-.536 7.17l15.821 2.384a64.3 64.3 0 0 0 .715-9.554ZM280 343.722c0 2.536-.105 5.1-.313 7.623l15.947 1.31c.243-2.956.366-5.962.366-8.933V336h-16Z" fill="#000000" opacity="1" data-original="#000000" class=""></path><path d="M468.689 222.32a152.338 152.338 0 0 0-53.026-55.305l-22.747-14a24.072 24.072 0 0 0-32.108 6.49l-18.651 26.112a48.245 48.245 0 0 0-21.462-28.13l-15.076-9.046 5.97-17.91A8 8 0 0 0 304 120h-24a71.595 71.595 0 0 0-26.259 4.98l15.746-37.396c.19.063.38.122.574.17l-.001.007 32 8a7.992 7.992 0 0 0 9.095-4.183l8-16a8 8 0 0 0-1.498-9.235l-24-24-.006.006a7.992 7.992 0 0 0-2.5-1.703l-44.73-19.17A67.739 67.739 0 0 0 152 83.739V88a8 8 0 0 0 14.656 4.438 57.461 57.461 0 0 1 65.604-22.671l-53.47 126.991-22.04-38.569a23.911 23.911 0 0 0-25.866-11.56l-18.351 3.933A111.999 111.999 0 0 0 24 260.075V352a8 8 0 0 0 7.212 7.96c.267.027.532.04.795.04a8 8 0 0 0 7.838-6.43l12.051-60.257a107.806 107.806 0 0 1 44.37-67.52l-23.694 59.236a8 8 0 0 0 12.43 9.214l7.078-5.671A31.991 31.991 0 0 0 88 304.249v21.33A18.443 18.443 0 0 0 106.422 344h10.372l-12.167 28.896a8 8 0 0 0 4.843 10.694l24 8a7.993 7.993 0 0 0 9.903-4.486l19.181-45.556A24.026 24.026 0 0 0 176 320v47.567l-10.12 3.373A31.96 31.96 0 0 0 144 401.298v10.461a31.95 31.95 0 0 0-24 30.98v2.198l-3.97.497A32.05 32.05 0 0 0 88 477.187V488a8 8 0 0 0 8 8h264a8 8 0 0 0 8-8v-25.298a38.757 38.757 0 0 0-24-35.794v-25.02a36.711 36.711 0 0 0-16-30.442v-77.99a45.15 45.15 0 0 0 10.378-12.592l22.541 42.86A8 8 0 0 0 376 320v-49.438a100.562 100.562 0 0 1 16 54.693V360a8 8 0 0 0 15.155 3.578l6.248-12.496a142.427 142.427 0 0 0 12.303-91.588 266.038 266.038 0 0 1 34.61 71.738l12.038 39.12A8 8 0 0 0 488 368v-71.533a152.346 152.346 0 0 0-19.311-74.147ZM208 192v.384L204.793 200h-10.008l52.057-123.635 8.268 4.134-25.202 59.854A71.776 71.776 0 0 0 208 192Zm-93.942 97.394 24.913-9.966-5.942-14.856-9.917 3.967 2.165-8.663a16.076 16.076 0 0 1 7.584-10.01l31.035-17.735L140.372 288H136a7.996 7.996 0 0 0-3.578.845l-16 8a7.988 7.988 0 0 0-.855.505l-.004-.006L104 305.052v-.803a15.924 15.924 0 0 1 10.058-14.855ZM128 328v-19.056l9.889-4.944H160v16a8.01 8.01 0 0 1-8 8Zm39.74-40h-10.007l16.702-39.669a24.11 24.11 0 0 0 7.68 5.53ZM192 240a8.01 8.01 0 0 1-8-8v-16h22.111l9.889 4.944V240ZM299.714 78.683l-16.099-4.025 6.577-13.152 12.074 12.074ZM214.487 50.92a73.796 73.796 0 0 0-42.833 13.715 51.74 51.74 0 0 1 68.465-28.452L277.05 52.01l-8.628 17.256-21.246-10.623a72.948 72.948 0 0 0-32.69-7.723ZM40 275.768v-15.693a96.002 96.002 0 0 1 75.885-93.869l18.351-3.933a7.98 7.98 0 0 1 8.623 3.854L168 210.124v1.233l-43.077 24.616a32.174 32.174 0 0 0-14.335 17.262l-11.871 9.514 20.71-51.778a8 8 0 0 0-10.578-10.325A123.792 123.792 0 0 0 40 275.768Zm64 49.81a2.417 2.417 0 0 1 1.079-2.015l6.921-4.615V328h-5.578a2.425 2.425 0 0 1-2.422-2.422Zm27.502 48.49-8.776-2.925L134.154 344h10.008Zm184.92 9.087A20.831 20.831 0 0 1 328 401.89v22.06a27.048 27.048 0 0 1-24.41-18.478l-15.18 5.058A43.043 43.043 0 0 0 329.299 440 22.728 22.728 0 0 1 352 462.702V480H104v-2.813a16.024 16.024 0 0 1 14.015-15.876l83.38-10.423a108.03 108.03 0 0 0 91.39-80.95l-15.522-3.877a92.03 92.03 0 0 1-77.852 68.95L136 442.937v-.199a15.977 15.977 0 0 1 12.12-15.522l55.282-13.82a81.032 81.032 0 0 0 7.261-2.183l-5.326-15.088a64.518 64.518 0 0 1-5.815 1.749L160 407.754v-6.456a15.978 15.978 0 0 1 10.94-15.178l17.299-5.766a64.377 64.377 0 0 0 37.388-32.872l-14.404-6.964A48.314 48.314 0 0 1 192 361.189V296a7.995 7.995 0 0 0-6.932-7.92L198.575 256H216v24a8 8 0 0 0 8 8h24v47.784a63.72 63.72 0 0 1-24.008 49.972l10.003 12.488A79.646 79.646 0 0 0 264 335.784v-46.17l10.28 6.854a44.804 44.804 0 0 0 37.72 5.648V376a8 8 0 0 0 4.422 7.155Zm11.578-124a28.844 28.844 0 0 1-44.845 24l-14.717-9.811A8 8 0 0 0 264 272h-32v-45.526l77.895 21.244 4.21-15.436-15.226-4.152.896-1.791a38.474 38.474 0 0 0-11.333-48.008L276.8 169.6a8.002 8.002 0 0 0-9.6 0l-8.925 6.693a38.51 38.51 0 0 0-14.943 36.687l-16.462-4.49-2.87-1.434V192a56.063 56.063 0 0 1 56-56h12.9l-4.49 13.47a8 8 0 0 0 3.474 9.39l20.58 12.347A32.164 32.164 0 0 1 328 198.647Zm-60.124-70.061L272 186l6.842 5.132a22.48 22.48 0 0 1 6.622 28.05l-2.327 4.654-21.419-5.841a22.491 22.491 0 0 1 6.158-28.901ZM472 315.605a282.495 282.495 0 0 0-66.343-105.262 8 8 0 0 0-12.441 9.897 126.506 126.506 0 0 1 14.704 100.63 116.421 116.421 0 0 0-34.263-78.527A8 8 0 0 0 360 248v39.603l-16-30.423v-46.616l29.828-41.758a8.023 8.023 0 0 1 10.702-2.163l22.747 13.999A135.997 135.997 0 0 1 472 296.467Z" fill="#000000" opacity="1" data-original="#000000" class=""></path></g></svg>