<svg height="512" viewBox="0 0 64 64" width="512" xmlns="http://www.w3.org/2000/svg"><g id="Fill_Outline" data-name="Fill Outline"><g id="Color"><path d="m4.475 14.3-1.057 1.415a1.852 1.852 0 0 0 .172 2.421 1.853 1.853 0 0 1 .41 2l-.83 2.074a2.379 2.379 0 0 0 .889 2.862 2.379 2.379 0 0 1 .988 2.556l-.233.934a2.377 2.377 0 0 0 .776 2.4l1.7 1.43a2.379 2.379 0 0 1 .833 1.562l.191 1.762a2.379 2.379 0 0 0 1.3 1.87 7.9 7.9 0 0 1 3.907 4.41l3.933 11.004 5-2-4.264-11.939a7.9 7.9 0 0 1 -.307-4.207l.24-1.2a2.514 2.514 0 0 0 -1.071-2.586 2.517 2.517 0 0 1 -.991-2.889l.181-.543a2.509 2.509 0 0 0 .081-1.289l-.72-3.6a2.512 2.512 0 0 0 -.688-1.285l-1.891-1.892a2.514 2.514 0 0 1 -.7-1.365l-.45-2.7a3 3 0 0 0 -2.962-2.505h-1.828a3.262 3.262 0 0 0 -2.609 1.3z" fill="#e9f1f2"/><path d="m22.45 51-5 2-3.93-11.01a7.852 7.852 0 0 0 -3.91-4.41 2.394 2.394 0 0 1 -1.3-1.87l-.19-1.76a2.324 2.324 0 0 0 -.83-1.56l-1.7-1.43a2.382 2.382 0 0 1 -.78-2.4l.24-.93a2.3 2.3 0 0 0 .07-.58 2.368 2.368 0 0 0 -1.06-1.98 2.368 2.368 0 0 1 -.89-2.86l.83-2.08a1.787 1.787 0 0 0 .13-.68 1.863 1.863 0 0 0 -.54-1.31 1.858 1.858 0 0 1 -.17-2.43l1.06-1.41a3.289 3.289 0 0 1 1.33-1.04 1.852 1.852 0 0 0 .51 1.66 1.887 1.887 0 0 1 .54 1.32 1.787 1.787 0 0 1 -.13.68l-.83 2.08a2.372 2.372 0 0 0 .89 2.86 2.392 2.392 0 0 1 1.06 1.98 2.224 2.224 0 0 1 -.07.57l-.24.94a2.359 2.359 0 0 0 .78 2.39l1.7 1.43a2.412 2.412 0 0 1 .83 1.57 3.357 3.357 0 0 0 3.36 3.22 3.3 3.3 0 0 0 1.25-.24l.18-.06a13.257 13.257 0 0 0 2.45-1.12 2.443 2.443 0 0 1 .03 1.11l-.24 1.2a7.935 7.935 0 0 0 .31 4.21z" fill="#d0d8da"/><path d="m56 49 .409-1.637a9.7 9.7 0 0 0 -9.409-12.363h-6v-4h-12v4h-6a10 10 0 0 0 -8.884 5.405 9.9 9.9 0 0 0 -.852 6.18l.736 4.415-1 2.815v3.8l1 3.385h42l1-6.379z" fill="#a1d51c"/><path d="m33 36a11.8 11.8 0 0 1 -4.76-1h.76v-4h12v1.95a11.933 11.933 0 0 1 -8 3.05z" fill="#7ab92d"/><path d="m54.315 58.192 1.685 2.808h-42l-1-3.39v-3.79l1-2.82-.74-4.42a9.861 9.861 0 0 1 .86-6.17 9.971 9.971 0 0 1 8.88-5.41h5a36.949 36.949 0 0 0 -1 8.47 6.533 6.533 0 0 0 12.62 2.37l4.21-10.84h3.17a9.707 9.707 0 0 1 9.41 12.36l-.41 1.64-1.993 4.65a5 5 0 0 0 .308 4.542z" fill="#7ab92d"/><path d="m44.056 18 1.66-2.767a8.95 8.95 0 0 1 3.669-3.4l1.671-.833a8.944 8.944 0 0 1 0 8l-.546 1.092a2.447 2.447 0 0 0 -.133 1.871l.087.261a2.451 2.451 0 0 1 -.966 2.814 2.449 2.449 0 0 1 -2.829-.078l-2.613-1.96z" fill="#a1d51c"/><path d="m44 18v5l2.61 1.96a2.455 2.455 0 0 0 2.83.08 2.142 2.142 0 0 0 .56-.52 5.589 5.589 0 0 1 -1.58-6.6l.99-2.26a6.466 6.466 0 0 1 .44-.82 9.011 9.011 0 0 1 1.82-1.98 9 9 0 0 0 -.67-1.86l-1.67.84a8.829 8.829 0 0 0 -3.67 3.39z" fill="#7ab92d"/><path d="m25.944 18-1.66-2.767a8.95 8.95 0 0 0 -3.669-3.4l-1.671-.833a8.944 8.944 0 0 0 0 8l.546 1.092a2.447 2.447 0 0 1 .133 1.871l-.087.261a2.451 2.451 0 0 0 .966 2.814 2.449 2.449 0 0 0 2.829-.078l2.613-1.96z" fill="#7ab92d"/><path d="m25.94 18v5l-2.61 1.96a2.455 2.455 0 0 1 -2.83.08 2.142 2.142 0 0 1 -.56-.52 5.589 5.589 0 0 0 1.58-6.6l-.99-2.26a6.466 6.466 0 0 0 -.44-.82 9.011 9.011 0 0 0 -1.82-1.98 9 9 0 0 1 .67-1.86l1.67.84a8.829 8.829 0 0 1 3.67 3.39z" fill="#5ba006"/><rect fill="#a1d51c" height="30" rx="12" width="24" x="23" y="4"/><path d="m44.11 29.81a12 12 0 0 1 -21.11-7.81v-6a11.992 11.992 0 0 1 9.89-11.81 11.874 11.874 0 0 0 -2.89 7.81v6a12 12 0 0 0 12 12 11.267 11.267 0 0 0 2.11-.19z" fill="#7ab92d"/><path d="m37.637 40a1.538 1.538 0 0 0 -1.088.451l-.461.461a1.538 1.538 0 0 1 -2.176 0l-.461-.461a1.538 1.538 0 0 0 -1.088-.451h-6.363v1l3.459.577.049.008a5.528 5.528 0 0 1 4.492 5.495v3.92h2v-3.917a5.529 5.529 0 0 1 4.5-5.5l.049-.008 1.956-.325.495-1.25z" fill="#7ab92d"/><path d="m41.33 27.23-2.33-4.23-2 5h1.17a6.892 6.892 0 0 0 3.16-.77z" fill="#d0d8da"/><path d="m33 28-2-5-2.33 4.23a6.892 6.892 0 0 0 3.16.77z" fill="#d0d8da"/><path d="m41.33 27.23a2.8 2.8 0 0 1 -2.52-3.468l.19-.762-2 5h1.17a6.892 6.892 0 0 0 3.16-.77z" fill="#93999a"/><path d="m33 28a3.415 3.415 0 0 1 -2.233-4.068l.233-.932-2.33 4.23a6.892 6.892 0 0 0 3.16.77z" fill="#93999a"/><path d="m39 16h-2v-.838a3 3 0 0 1 2.051-2.846l3.949-1.316v1a4 4 0 0 1 -4 4z" fill="#f8664f"/><path d="m31 16h2v-.838a3 3 0 0 0 -2.051-2.846l-3.949-1.316v1a4 4 0 0 0 4 4z" fill="#f8664f"/><path d="m49 49 10-1a10.368 10.368 0 0 0 -3.75-9.8l-.25-.2-7 5z" fill="#656b76"/><path d="m56 45h-1.8a2.5 2.5 0 0 0 -1.95.94 2.473 2.473 0 0 0 -.55 1.55 2.532 2.532 0 0 0 .31 1.21l-3.01.3-1-6 7-5 .25.2a10.417 10.417 0 0 1 2.988 3.877c.221.495-2.238 2.923-2.238 2.923z" fill="#464a51"/><path d="m40 61h-5l9-18 4 2z" fill="#e9f1f2"/><path d="m48 45-1.19 2.37a4 4 0 0 0 -3.6 2.21l-5.71 11.42h-2.5l9-18z" fill="#d0d8da"/><path d="m61 40h-7v.172a6.826 6.826 0 0 0 2 4.828z" fill="#d0d8da"/><g fill="#93999a"><path d="m54 40v.172a6.8 6.8 0 0 0 .44 2.388l2.56-2.56z"/><path d="m61 40-.227.185a5.2 5.2 0 0 1 -6.773-.185v.172a6.826 6.826 0 0 0 2 4.828z"/><path d="m43 43 4-11a11.211 11.211 0 0 1 9.328 4.992l.672 1.008-8 8z"/></g><path d="m49 34 6-4-1 7a4.123 4.123 0 0 1 -5-3z" fill="#e9f1f2"/><path d="m49 34a3.878 3.878 0 0 0 5.414-2.243l.586-1.757-1 7a4.123 4.123 0 0 1 -5-3z" fill="#d0d8da"/><path d="m57 38-8 8-6-3 .94-2.6a9.3 9.3 0 0 0 9.8-2.14l2.03-2.03c.2.24.38.5.56.76z" fill="#656b76"/></g><g id="Outline_copy" fill="#323232" data-name="Outline copy"><path d="m29 35a1 1 0 0 0 -1-1h-5a11.011 11.011 0 0 0 -4.091.8l.192-.955a3.482 3.482 0 0 0 -1.491-3.605 1.538 1.538 0 0 1 -.68-1.272 1.464 1.464 0 0 1 .08-.479l.177-.539a3.384 3.384 0 0 0 .113-1.8l-.717-3.585a3.435 3.435 0 0 0 -.958-1.817l-1.9-1.888a1.541 1.541 0 0 1 -.421-.828l-.45-2.688a3.986 3.986 0 0 0 -3.944-3.344h-1.83a4.253 4.253 0 0 0 -3.4 1.7l-1.057 1.406a2.845 2.845 0 0 0 .26 3.741.851.851 0 0 1 .223.4 1 1 0 0 0 1.945-.469 2.848 2.848 0 0 0 -.751-1.34.857.857 0 0 1 -.083-1.127l1.065-1.411a2.249 2.249 0 0 1 1.8-.9h1.828c.041 0 .079.008.119.011l-1.282 1.282a1 1 0 1 0 1.414 1.414l1.554-1.554a2.033 2.033 0 0 1 .169.522l.45 2.7a3.536 3.536 0 0 0 .981 1.908l1.9 1.889a1.461 1.461 0 0 1 .407.778l.6 3.022a2.206 2.206 0 0 1 -1.77-1.2l-.106-.211a1 1 0 1 0 -1.789.894l.106.211a4.2 4.2 0 0 0 3.419 2.316 3.42 3.42 0 0 0 -.154 1 3.539 3.539 0 0 0 1.57 2.935 1.5 1.5 0 0 1 .64 1.549l-.241 1.2a8.793 8.793 0 0 0 -.149 1.317 10.967 10.967 0 0 0 -3.328 3.656 8.82 8.82 0 0 0 -3.364-2.941 1.4 1.4 0 0 1 -.756-1.098l-.189-1.75c0-.035-.015-.068-.02-.1.021-.018.046-.025.066-.044l.586-.586a3.851 3.851 0 0 1 2.711-1.12 1 1 0 0 0 0-2 5.865 5.865 0 0 0 -4.121 1.707l-.16.159c-.079-.081-.151-.168-.239-.242l-1.7-1.424a1.373 1.373 0 0 1 -.456-1.385l.238-.923a3.264 3.264 0 0 0 .1-.837c0-.038-.012-.073-.013-.11a3.768 3.768 0 0 0 2.928-2.521 1 1 0 0 0 -1.9-.633 1.77 1.77 0 0 1 -1.677 1.209c-.016 0-.03.008-.046.009a3.332 3.332 0 0 0 -.8-.774 1.369 1.369 0 0 1 -.508-1.651 1 1 0 1 0 -1.854-.748 3.373 3.373 0 0 0 1.263 4.064 1.368 1.368 0 0 1 .611 1.15 1.342 1.342 0 0 1 -.038.33l-.242.937a3.363 3.363 0 0 0 1.106 3.409l1.705 1.432a1.33 1.33 0 0 1 .475.9l.19 1.763a3.377 3.377 0 0 0 1.849 2.655 6.821 6.821 0 0 1 3.278 3.559 11.412 11.412 0 0 0 -.165 4.714l.693 4.16-.913 2.571a1.009 1.009 0 0 0 -.058.335v3.8a1.011 1.011 0 0 0 .041.284l1 3.388a1 1 0 0 0 1.918-.566l-.959-3.254v-3.48l.156-.439.949 1.9a1 1 0 0 0 1.79-.894l-1.934-3.866-.711-4.268a8.836 8.836 0 0 1 .75-5.555 8.979 8.979 0 0 1 8-4.865h5a1 1 0 0 0 1-1z"/><path d="m21 50a1 1 0 0 0 -1 1v5.382l-1.447.723a1 1 0 0 0 .894 1.79l.553-.277v2.382a1 1 0 0 0 2 0v-10a1 1 0 0 0 -1-1z"/><path d="m36 51v-6a1 1 0 0 0 -2 0v6a1 1 0 0 0 2 0z"/><path d="m26 51h2a1 1 0 0 0 0-2h-2a1 1 0 0 0 0 2z"/><path d="m28.212 28.119a7.936 7.936 0 0 0 3.618.881h6.34a7.936 7.936 0 0 0 3.618-.881 1 1 0 0 0 .418-1.371l-2.33-4.23a1.013 1.013 0 0 0 -.938-.518 1 1 0 0 0 -.867.627l-1.748 4.373h-2.646l-1.748-4.371a1 1 0 0 0 -.867-.629 1.019 1.019 0 0 0 -.938.516l-2.33 4.23a1 1 0 0 0 .418 1.371zm10.932-2.785.771 1.4a5.856 5.856 0 0 1 -1.435.258zm-8.288 0 .664 1.657a5.856 5.856 0 0 1 -1.435-.258z"/><path d="m36 15.162v.838a1 1 0 0 0 1 1h2a5.006 5.006 0 0 0 5-5v-1a1 1 0 0 0 -1.316-.948l-3.949 1.316a3.994 3.994 0 0 0 -2.735 3.794zm5.974-2.762a3 3 0 0 1 -2.974 2.6h-.994a2 2 0 0 1 1.362-1.735z"/><path d="m27.316 10.052a.991.991 0 0 0 -.9.136 1 1 0 0 0 -.416.812v1a5.006 5.006 0 0 0 5 5h2a1 1 0 0 0 1-1v-.838a3.994 3.994 0 0 0 -2.735-3.794zm4.678 4.948h-.994a3 3 0 0 1 -2.974-2.6l2.607.869a2 2 0 0 1 1.361 1.731z"/><path d="m32 19a1 1 0 0 0 0 2 2.224 2.224 0 0 1 2 1.236l.1.211a1 1 0 0 0 1.79 0l.1-.211a2.224 2.224 0 0 1 2.01-1.236 1 1 0 0 0 0-2 4.214 4.214 0 0 0 -3 1.241 4.214 4.214 0 0 0 -3-1.241z"/><path d="m37.9 8.553a1 1 0 0 0 -1.342-.448l-1.558.777-1.553-.777a1 1 0 0 0 -.894 1.79l2 1a1 1 0 0 0 .894 0l2-1a1 1 0 0 0 .453-1.342z"/><path d="m44 23v-.586a2.4 2.4 0 0 1 .708-1.707 1 1 0 0 0 -1.416-1.414 4.387 4.387 0 0 0 -1.292 3.121v.586a1 1 0 0 0 2 0z"/><path d="m27 24a1 1 0 0 0 1-1v-.586a4.387 4.387 0 0 0 -1.292-3.121 1 1 0 0 0 -1.416 1.414 2.4 2.4 0 0 1 .708 1.707v.586a1 1 0 0 0 1 1z"/><path d="m40.253 50.494a1 1 0 0 0 -1.342.447l-1.852 3.7-1.352-1.352a1 1 0 0 0 -1.414 0l-1.707 1.711h-5.172l-1.707-1.707a1 1 0 0 0 -1.414 1.414l2 2a1 1 0 0 0 .707.293h6a1 1 0 0 0 .707-.293l1.293-1.293 1.117 1.117-2.017 4.022a1 1 0 0 0 1.79.894l4.81-9.611a1 1 0 0 0 -.447-1.342z"/><path d="m61.924 39.617a1 1 0 0 0 -.924-.617h-3.586l.293-.293a1 1 0 0 0 -1.414-1.414l-7.49 7.49-4.559-2.283 3.448-9.48c.267.019.532.075.8.115l-.044.029a1 1 0 0 0 -.415 1.074 5.124 5.124 0 0 0 4.961 3.883 5.147 5.147 0 0 0 1.252-.155 1 1 0 0 0 .747-.828l1-7a1 1 0 0 0 -1.545-.974l-3.673 2.449a12.12 12.12 0 0 0 -3.775-.613 1 1 0 0 0 -.94.658l-.852 2.342h-3.208v-2.063a13.076 13.076 0 0 0 4.9-5.728 3.455 3.455 0 0 0 1.237.241 3.52 3.52 0 0 0 1.913-.577 3.449 3.449 0 0 0 1.363-3.948l-.09-.29a1.426 1.426 0 0 1 .076-1.094l.555-1.1a9.976 9.976 0 0 0 0-8.882 1 1 0 0 0 -1.346-.453l-1.664.837a9.686 9.686 0 0 0 -1.361.822 13.016 13.016 0 0 0 -2.461-4.91 1 1 0 1 0 -1.558 1.254 10.875 10.875 0 0 1 2.436 6.891v6a11 11 0 0 1 -22 0v-6a10.984 10.984 0 0 1 16.814-9.325 1 1 0 0 0 1.06-1.7 12.966 12.966 0 0 0 -19.451 7.795 9.75 9.75 0 0 0 -1.364-.824l-1.67-.84a1 1 0 0 0 -1.346.453 9.98 9.98 0 0 0 0 8.892l.549 1.086a1.453 1.453 0 0 1 .069 1.128l-.074.238a3.459 3.459 0 0 0 1.36 3.973 3.519 3.519 0 0 0 1.909.574 3.455 3.455 0 0 0 1.237-.241 12.982 12.982 0 0 0 16.907 6.791v2a1 1 0 0 0 1 1h3.481l-1.117 3.073a1 1 0 0 0 -.364-.073h-6a1 1 0 0 0 -.707.293l-1.293 1.293-1.293-1.293a1 1 0 0 0 -.707-.293h-6a1 1 0 0 0 0 2h5.586l1.707 1.707a1 1 0 0 0 1.414 0l1.707-1.707h5.249l-.6 1.658a.992.992 0 0 0 .407 1.172l-2.043 4.085a1 1 0 0 0 1.789.9l2.034-4.068 2.211 1.105-7.361 14.701a1 1 0 0 0 1.79.894l6.879-13.747.231 1.382v11.918a1 1 0 0 0 2 0v-2.586l.293.293a1 1 0 0 0 1.414-1.414l-1.707-1.707v-5.681l4.751-.475-1.68 4.2a1 1 0 0 0 1.858.742l.7-1.75.357 2.011-.974 6.213a1 1 0 0 0 .833 1.143 1.034 1.034 0 0 0 .155.011 1 1 0 0 0 .987-.845l1-6.379a.988.988 0 0 0 0-.33l-.936-5.246 2.049-.2a1 1 0 0 0 .886-.831 11.35 11.35 0 0 0 -.412-5.324l2.133-2.133a1 1 0 0 0 .217-1.095zm-8.809-3.495a3.046 3.046 0 0 1 -1.722-.444 3.1 3.1 0 0 1 -1.187-1.278l3.488-2.325zm-3.276-23.389.713-.358a7.951 7.951 0 0 1 -.385 6.174l-.552 1.094a3.426 3.426 0 0 0 -.191 2.612l.087.281a1.45 1.45 0 0 1 -.56 1.668 1.485 1.485 0 0 1 -1.394.105 12.955 12.955 0 0 0 .443-3.309v-6c0-.311-.018-.621-.04-.93a7.715 7.715 0 0 1 1.879-1.337zm-28.786 11.474a1.459 1.459 0 0 1 -.557-1.692l.07-.23a3.447 3.447 0 0 0 -.183-2.646l-.546-1.08a8.12 8.12 0 0 1 -.837-3.559 8.023 8.023 0 0 1 .448-2.625l.719.361a7.7 7.7 0 0 1 1.88 1.34c-.022.307-.047.612-.047.924v6a12.941 12.941 0 0 0 .443 3.308 1.492 1.492 0 0 1 -1.39-.101zm37.533 16.793-2.523 2.523a5.842 5.842 0 0 1 -.94-2.232l.291-.291zm-.479 6.084-8.274.828-.194-1.16c.021-.018.048-.025.068-.045l3.815-3.814a7.806 7.806 0 0 0 1.771 2.814 1 1 0 0 0 1.414 0l1.237-1.237a9.324 9.324 0 0 1 .163 2.614z"/></g></g></svg>