<svg id="Layer_1" enable-background="new 0 0 512 512" viewBox="0 0 512 512" xmlns="http://www.w3.org/2000/svg"><g><g><g><g><path d="m304.6 158.7c10.7 0 19.5-8.7 19.5-19.5 0-10.7-8.7-19.5-19.5-19.5h-97.3c-10.7 0-19.5 8.7-19.5 19.5 0 10.7 8.7 19.5 19.5 19.5z" fill="#e6e7e8"/><path d="m304.6 119.8h-19.5c10.7 0 19.5 8.7 19.5 19.5 0 10.7-8.7 19.5-19.5 19.5h19.5c10.7 0 19.5-8.7 19.5-19.5s-8.7-19.5-19.5-19.5z" fill="#bcbec0"/><path d="m207.4 158.7h19.5c-10.7 0-19.5-8.7-19.5-19.5 0-10.7 8.7-19.5 19.5-19.5h-19.5c-10.7 0-19.5 8.7-19.5 19.5s8.7 19.5 19.5 19.5z" fill="#fff"/></g><path d="m304.6 163.6h-97.3c-13.4 0-24.3-10.9-24.3-24.3s10.9-24.3 24.3-24.3h97.3c13.4 0 24.3 10.9 24.3 24.3.1 13.4-10.8 24.3-24.3 24.3zm-97.2-38.9c-8 0-14.6 6.5-14.6 14.6 0 8 6.5 14.6 14.6 14.6h97.3c8 0 14.6-6.5 14.6-14.6 0-8-6.5-14.6-14.6-14.6z" fill="#402943"/></g><g><g><path d="m294.9 203.7v-45h-77.8v45c-50.8 16.4-87.6 64.1-87.6 120.4 0 69.9 56.6 126.5 126.5 126.5s126.5-56.6 126.5-126.5c0-56.3-36.8-103.9-87.6-120.4z" fill="#fff"/><path d="m294.9 203.7v-45h-46.2v45c50.8 16.4 87.6 64.1 87.6 120.4 0 62-44.6 113.5-103.4 124.4 7.5 1.4 15.2 2.1 23.1 2.1 69.9 0 126.5-56.6 126.5-126.5 0-56.3-36.8-103.9-87.6-120.4z" fill="#e6e7e8"/></g><path d="m256 455.4c-72.4 0-131.3-58.9-131.3-131.3 0-56 35-105.3 87.6-123.9v-41.5c0-2.7 2.2-4.9 4.9-4.9h77.8c2.7 0 4.9 2.2 4.9 4.9v41.5c52.5 18.5 87.6 67.9 87.6 123.9-.2 72.4-59.1 131.3-131.5 131.3zm-34.1-291.8v40.2c0 2.1-1.4 4-3.4 4.6-50.4 16.3-84.2 62.8-84.2 115.7 0 67.1 54.6 121.6 121.6 121.6s121.6-54.6 121.6-121.6c0-53-33.8-99.5-84.2-115.7-2-.6-3.4-2.5-3.4-4.6v-40.2z" fill="#402943"/></g><g><g><g><path d="m226.8 61.4h58.4v58.4h-58.4z" fill="#fcd64b"/><g><path d="m275.5 61.4h9.7v58.4h-9.7z" fill="#f5ab33"/><path d="m226.8 61.4h19.5v58.4h-19.5z" fill="#ffeca6"/></g></g><path d="m285.2 124.7h-58.4c-2.7 0-4.9-2.2-4.9-4.9v-58.4c0-2.7 2.2-4.9 4.9-4.9h58.4c2.7 0 4.9 2.2 4.9 4.9v58.4c0 2.7-2.2 4.9-4.9 4.9zm-53.5-9.8h48.6v-48.6h-48.6z" fill="#402943"/></g><g><path d="m265.7 83.3h-38.9c-1.3 0-2.4-1.1-2.4-2.4s1.1-2.4 2.4-2.4h38.9c1.3 0 2.4 1.1 2.4 2.4s-1 2.4-2.4 2.4z" fill="#402943"/></g><g><path d="m285.2 83.3h-9.7c-1.3 0-2.4-1.1-2.4-2.4s1.1-2.4 2.4-2.4h9.7c1.3 0 2.4 1.1 2.4 2.4s-1.1 2.4-2.4 2.4z" fill="#402943"/></g></g><g><path d="m149 324.1c0 59.1 47.9 107 107 107s107-47.9 107-107z" fill="#f05458"/><g><path d="m149 324.1h29.2c0 54.2 40.2 98.9 92.4 106-4.8.7-9.6 1-14.6 1-59.1 0-107-47.9-107-107z" fill="#f0787b"/><path d="m363 324.1h-29.2c0 54.2-40.2 98.9-92.4 106 4.8.7 9.6 1 14.6 1 59.1 0 107-47.9 107-107z" fill="#d9383c"/></g><path d="m256 436c-61.7 0-111.9-50.2-111.9-111.9 0-2.7 2.2-4.9 4.9-4.9h214c2.7 0 4.9 2.2 4.9 4.9 0 61.7-50.2 111.9-111.9 111.9zm-102-107c2.5 54.1 47.3 97.3 102 97.3s99.5-43.2 102-97.3z" fill="#402943"/></g><g><g><circle cx="226.8" cy="382.5" fill="#f0787b" r="9.7"/><path d="m226.8 394.6c-6.7 0-12.2-5.5-12.2-12.2s5.5-12.2 12.2-12.2 12.2 5.5 12.2 12.2c0 6.8-5.5 12.2-12.2 12.2zm0-19.4c-4 0-7.3 3.3-7.3 7.3s3.3 7.3 7.3 7.3 7.3-3.3 7.3-7.3-3.3-7.3-7.3-7.3z" fill="#402943"/></g><g><circle cx="207.4" cy="353.3" fill="#f0787b" r="14.6"/><path d="m207.4 370.3c-9.4 0-17-7.6-17-17s7.6-17 17-17 17 7.6 17 17-7.7 17-17 17zm0-29.2c-6.7 0-12.2 5.5-12.2 12.2s5.5 12.2 12.2 12.2 12.2-5.5 12.2-12.2c-.1-6.7-5.5-12.2-12.2-12.2z" fill="#402943"/></g></g><g><path d="m294.9 208.6h-48.6c-1.3 0-2.4-1.1-2.4-2.4s1.1-2.4 2.4-2.4h48.6c1.3 0 2.4 1.1 2.4 2.4s-1 2.4-2.4 2.4z" fill="#402943"/></g></g></g></svg>