<svg height="512pt" viewBox="0 0 512.00025 512" width="512pt" xmlns="http://www.w3.org/2000/svg"><path d="m504.480469 255.75c0 137.226562-111.246094 248.472656-248.472657 248.472656-137.226562 0-248.46875-111.246094-248.46875-248.472656s111.242188-248.46875 248.46875-248.46875c137.226563 0 248.472657 111.242188 248.472657 248.46875zm0 0" fill="#e7e7e7"/><path d="m37.867188 255.75c0-132.132812 103.144531-240.15625 233.308593-247.996094-5.019531-.300781-10.070312-.472656-15.167969-.472656-137.226562 0-248.46875 111.242188-248.46875 248.46875s111.246094 248.472656 248.472657 248.472656c5.09375 0 10.144531-.171875 15.164062-.476562-130.164062-7.835938-233.308593-115.863282-233.308593-247.996094zm0 0" fill="#cecece"/><path d="m467.058594 386.914062c-9.621094-20.277343-30.273438-34.300781-54.210938-34.300781-33.125 0-59.976562 26.851563-59.976562 59.976563 0 23.9375 14.023437 44.589844 34.300781 54.210937 32.355469-20.152343 59.734375-47.53125 79.886719-79.886719zm0 0" fill="#cecece"/><path d="m383.199219 412.589844c0-27.886719 19.035156-51.324219 44.820312-58.042969-4.84375-1.261719-9.929687-1.933594-15.171875-1.933594-33.125 0-59.976562 26.851563-59.976562 59.976563 0 23.9375 14.023437 44.589844 34.300781 54.210937 5.199219-3.238281 10.253906-6.679687 15.1875-10.28125-11.785156-10.953125-19.160156-26.578125-19.160156-43.929687zm0 0" fill="#bfbfbf"/><path d="m314.921875 115.167969c0 33.125-26.851563 59.976562-59.976563 59.976562s-59.976562-26.851562-59.976562-59.976562 26.851562-59.976563 59.976562-59.976563 59.976563 26.851563 59.976563 59.976563zm0 0" fill="#cecece"/><path d="m225.296875 115.167969c0-27.886719 19.03125-51.324219 44.8125-58.039063-4.84375-1.261718-9.925781-1.9375-15.164063-1.9375-33.125 0-59.976562 26.851563-59.976562 59.976563s26.851562 59.976562 59.976562 59.976562c5.238282 0 10.320313-.675781 15.164063-1.9375-25.78125-6.71875-44.8125-30.15625-44.8125-58.039062zm0 0" fill="#bfbfbf"/><path d="m496.25 192.144531c-17.335938-65.640625-60.847656-120.628906-118.699219-153.140625-11.746093 16.53125-18.652343 36.742188-18.652343 58.566406 0 55.902344 45.316406 101.21875 101.21875 101.21875 12.730468 0 24.910156-2.355468 36.132812-6.644531zm0 0" fill="#cecece"/><path d="m389.226562 97.570312c0-16.011718 3.730469-31.144531 10.351563-44.605468-7.078125-5.019532-14.425781-9.6875-22.027344-13.960938-11.746093 16.53125-18.652343 36.742188-18.652343 58.566406 0 55.902344 45.316406 101.21875 101.21875 101.21875 5.132812 0 10.171874-.398437 15.101562-1.140624-48.675781-7.34375-85.992188-49.351563-85.992188-100.078126zm0 0" fill="#bfbfbf"/><path d="m435.136719 269.1875c0 16.5625-13.425781 29.988281-29.988281 29.988281s-29.988282-13.425781-29.988282-29.988281 13.425782-29.988281 29.988282-29.988281 29.988281 13.425781 29.988281 29.988281zm0 0" fill="#cecece"/><g fill="#bfbfbf"><path d="m405.488281 269.183594c0-11.027344 5.957031-20.65625 14.824219-25.867188-4.453125-2.613281-9.632812-4.121094-15.167969-4.121094-16.558593 0-29.988281 13.429688-29.988281 29.988282 0 16.5625 13.429688 29.988281 29.988281 29.988281 5.535157 0 10.714844-1.503906 15.167969-4.117187-8.867188-5.210938-14.824219-14.839844-14.824219-25.871094zm0 0"/><path d="m296.707031 258.9375c0 9.949219-8.066406 18.019531-18.019531 18.019531-9.949219 0-18.015625-8.070312-18.015625-18.019531s8.066406-18.019531 18.015625-18.019531c9.953125 0 18.019531 8.070312 18.019531 18.019531zm0 0"/><path d="m306.03125 412.589844c0 7.550781-6.121094 13.671875-13.671875 13.671875s-13.671875-6.121094-13.671875-13.671875c0-7.550782 6.121094-13.671875 13.671875-13.671875s13.671875 6.121093 13.671875 13.671875zm0 0"/></g><path d="m74.972656 75.03125c-48.347656 48.347656-74.972656 112.625-74.972656 181 0 141.472656 114.484375 255.96875 255.96875 255.96875 68.375 0 132.652344-26.625 181-74.972656 100.039062-100.035156 100.046875-261.949219 0-361.996094-100.039062-100.039062-261.949219-100.046875-361.996094 0zm412.066406 112.597656c-82.53125 24.777344-151.113281-65.753906-107.207031-138.222656 51.101563 30.746094 89.910157 79.902344 107.207031 138.222656zm-20.175781 184.867188c-9.207031-12.359375-22.382812-21.261719-37.617187-25.078125-4.015625-1.003907-8.089844 1.4375-9.097656 5.453125-1.007813 4.015625 1.4375 8.089844 5.453124 9.097656 13.910157 3.484375 25.632813 12.410156 32.71875 24.765625-18.554687 28.628906-43.015624 53.089844-71.640624 71.644531-38.828126-22.378906-33.425782-79.800781 8.296874-94.875 3.894532-1.410156 5.910157-5.707031 4.503907-9.601562-1.40625-3.898438-5.707031-5.910156-9.601563-4.507813-50.167968 18.125-60.578125 85.136719-17.425781 117.519531-34.546875 19.15625-74.261719 30.085938-116.484375 30.085938-132.871094.003906-240.96875-108.097656-240.96875-240.96875 0-180.191406 191.875-297.058594 351.738281-213.957031-50.316406 83.914062 28.75 188.203125 124.121094 160.042969 12.964844 56.519531 5.390625 117.375-23.996094 170.378906zm0 0"/><path d="m405.105469 231.976562c-20.667969 0-37.484375 16.816407-37.484375 37.488282s16.816406 37.488281 37.484375 37.488281c20.671875 0 37.488281-16.816406 37.488281-37.488281s-16.816406-37.488282-37.488281-37.488282zm0 59.976563c-12.398438 0-22.488281-10.085937-22.488281-22.488281 0-12.398438 10.089843-22.488282 22.488281-22.488282 12.402343 0 22.492187 10.089844 22.492187 22.488282 0 12.402344-10.089844 22.488281-22.492187 22.488281zm0 0"/><path d="m304.164062 259.214844c0-14.066406-11.445312-25.515625-25.515624-25.515625-14.070313 0-25.515626 11.445312-25.515626 25.515625 0 14.070312 11.445313 25.519531 25.515626 25.519531 14.070312 0 25.515624-11.449219 25.515624-25.519531zm-36.03125 0c0-5.796875 4.714844-10.515625 10.515626-10.515625 5.800781 0 10.519531 4.71875 10.519531 10.515625 0 5.800781-4.71875 10.519531-10.519531 10.519531-5.800782 0-10.515626-4.71875-10.515626-10.519531zm0 0"/><path d="m292.320312 391.699219c-11.675781 0-21.171874 9.496093-21.171874 21.167969 0 11.675781 9.496093 21.171874 21.171874 21.171874 11.671876 0 21.171876-9.496093 21.171876-21.171874 0-11.671876-9.5-21.167969-21.171876-21.167969zm0 27.339843c-3.402343 0-6.171874-2.769531-6.171874-6.171874 0-3.402344 2.769531-6.171876 6.171874-6.171876 3.402344 0 6.171876 2.769532 6.171876 6.171876 0 3.402343-2.769532 6.171874-6.171876 6.171874zm0 0"/><path d="m314.789062 123.675781c-3.996093-1.066406-8.113281 1.3125-9.175781 5.316407-6.109375 22.921874-26.960937 38.933593-50.707031 38.933593-28.9375 0-52.476562-23.542969-52.476562-52.480469 0-28.933593 23.539062-52.476562 52.476562-52.476562 22.394531 0 42.332031 14.226562 49.621094 35.398438 1.347656 3.917968 5.613281 6.003906 9.53125 4.652343 3.914062-1.347656 5.996094-5.617187 4.648437-9.53125-9.367187-27.226562-35.007812-45.515625-63.800781-45.515625-37.207031 0-67.476562 30.269532-67.476562 67.472656 0 37.210938 30.269531 67.476563 67.476562 67.476563 30.53125 0 57.34375-20.585937 65.195312-50.066406 1.070313-4.003907-1.3125-8.113281-5.3125-9.179688zm0 0"/></svg>