<svg id="Layer_1" height="512" viewBox="0 0 256 256" width="512" xmlns="http://www.w3.org/2000/svg"><g><g><g><path d="m33.799 21.726c0 7.581 6.146 13.726 13.726 13.726h160.95c7.581 0 13.726-6.146 13.726-13.726 0-7.581-6.146-13.726-13.726-13.726h-160.95c-7.581 0-13.726 6.146-13.726 13.726z" fill="#725246"/></g><g><path d="m208.475 8h-20c7.581 0 13.726 6.146 13.726 13.726 0 7.581-6.146 13.726-13.726 13.726h20c7.581 0 13.726-6.146 13.726-13.726 0-7.58-6.145-13.726-13.726-13.726z" fill="#5e3e2f"/></g><g><path d="m181.034 75.237v-39.784h-106.068v39.785c0 7.603 3.02 14.895 8.397 20.271l21.028 21.028c1.575 1.575 2.46 3.711 2.46 5.939v11.049c0 2.228-.885 4.364-2.46 5.939l-21.028 21.028c-5.376 5.376-8.397 12.668-8.397 20.271v39.785h106.069v-39.785c0-7.603-3.02-14.895-8.397-20.271l-21.029-21.028c-1.575-1.575-2.46-3.711-2.46-5.939v-11.049c0-2.228.885-4.364 2.46-5.939l21.029-21.028c5.376-5.377 8.396-12.668 8.396-20.272z" fill="#b2b0ad"/></g><g><path d="m151.609 116.537 21.028-21.028c5.376-5.376 8.397-12.668 8.397-20.271v-39.785h-20v39.785c0 7.603-3.021 14.895-8.397 20.271l-21.028 21.028c-1.575 1.575-2.46 3.711-2.46 5.939v11.049c0 2.227.885 4.364 2.46 5.939l21.028 21.028c5.376 5.376 8.397 12.668 8.397 20.271v39.785h20v-39.785c0-7.603-3.021-14.895-8.397-20.271l-21.028-21.028c-1.575-1.575-2.46-3.711-2.46-5.939v-11.049c0-2.228.885-4.364 2.46-5.939z" fill="#a3a09d"/></g><g><path d="m169.567 73.066v-12.58c0-1.16-.94-2.1-2.1-2.1h-78.935c-1.16 0-2.1.94-2.1 2.1v12.58c0 5.322 2.114 10.426 5.878 14.19l17.752 17.752c5.286 5.286 8.255 12.454 8.255 19.929v2.383c0 5.347 4.335 9.682 9.682 9.682 5.347 0 9.682-4.335 9.682-9.682v-2.383c0-7.475 2.969-14.644 8.255-19.929l17.752-17.752c3.765-3.763 5.879-8.867 5.879-14.19z" fill="#fedbb0"/></g><g><path d="m167.468 58.387h-10c1.16 0 2.1.94 2.1 2.1v12.58c0 5.322-2.114 10.426-5.878 14.19l-17.752 17.752c-5.286 5.286-8.255 12.454-8.255 19.929v2.383c0 3.515-1.88 6.584-4.682 8.28 1.461.884 3.168 1.402 5 1.402 5.347 0 9.682-4.335 9.682-9.682v-2.383c0-7.475 2.969-14.644 8.255-19.929l17.752-17.752c3.763-3.763 5.878-8.867 5.878-14.19v-12.58c-.001-1.16-.941-2.1-2.1-2.1z" fill="#e8c197"/></g><g><path d="m111.471 175.384-19.161 19.16c-3.763 3.763-5.878 8.867-5.878 14.19v11.814h83.135v-11.814c0-5.322-2.114-10.426-5.878-14.19l-19.161-19.161c-4.384-4.384-10.329-6.846-16.529-6.846-6.199 0-12.144 2.463-16.528 6.847z" fill="#fedbb0"/></g><g><path d="m163.69 194.544-19.161-19.161c-4.384-4.384-10.329-6.846-16.529-6.846-1.695 0-3.37.19-5 .548 4.332.949 8.344 3.114 11.529 6.299l19.161 19.161c3.763 3.763 5.878 8.867 5.878 14.19v11.813h10v-11.813c-.001-5.323-2.115-10.427-5.878-14.191z" fill="#e8c197"/></g><g><path d="m33.799 234.274c0-7.581 6.146-13.726 13.726-13.726h160.95c7.581 0 13.726 6.146 13.726 13.726 0 7.581-6.146 13.726-13.726 13.726h-160.95c-7.581 0-13.726-6.146-13.726-13.726z" fill="#725246"/></g><g><path d="m208.475 220.547h-20c7.581 0 13.726 6.146 13.726 13.726 0 7.581-6.146 13.726-13.726 13.726h20c7.581 0 13.726-6.146 13.726-13.726 0-7.58-6.145-13.726-13.726-13.726z" fill="#5e3e2f"/></g><g><circle cx="121.703" cy="147.036" fill="#fedbb0" r="4.539"/></g><g><circle cx="133.409" cy="158.264" fill="#fedbb0" r="6.689"/></g><g><g><g><path d="m188.698 147h15.302v73.547h-15.302z" fill="#e59a5c"/></g><path d="m188.698 35.453h15.302v73.547h-15.302z" fill="#e59a5c"/></g><g><path d="m52 35.453h15.302v73.547h-15.302z" fill="#e59a5c"/><g><path d="m52 147h15.302v73.547h-15.302z" fill="#e59a5c"/></g></g></g><g><g><path d="m206.681 136.168h-20.664c-4.511 0-8.168-3.657-8.168-8.168 0-4.511 3.657-8.168 8.168-8.168h20.664c4.511 0 8.168 3.657 8.168 8.168 0 4.511-3.657 8.168-8.168 8.168z" fill="#725246"/></g><g><path d="m204.433 109h-16.168c-2.991 0-5.416 2.425-5.416 5.416 0 2.991 2.425 5.416 5.416 5.416h16.168c2.991 0 5.416-2.425 5.416-5.416 0-2.991-2.425-5.416-5.416-5.416z" fill="#5e3e2f"/></g><g><path d="m204.433 136.168h-16.168c-2.991 0-5.416 2.425-5.416 5.416 0 2.991 2.425 5.416 5.416 5.416h16.168c2.991 0 5.416-2.425 5.416-5.416 0-2.991-2.425-5.416-5.416-5.416z" fill="#5e3e2f"/></g></g><g><g><path d="m69.983 136.168h-20.664c-4.511 0-8.168-3.657-8.168-8.168 0-4.511 3.657-8.168 8.168-8.168h20.664c4.511 0 8.168 3.657 8.168 8.168 0 4.511-3.657 8.168-8.168 8.168z" fill="#725246"/></g><g><path d="m67.735 109h-16.168c-2.991 0-5.416 2.425-5.416 5.416 0 2.991 2.425 5.416 5.416 5.416h16.168c2.991 0 5.416-2.425 5.416-5.416 0-2.991-2.425-5.416-5.416-5.416z" fill="#5e3e2f"/></g><g><path d="m67.735 136.168h-16.168c-2.991 0-5.416 2.425-5.416 5.416 0 2.991 2.425 5.416 5.416 5.416h16.168c2.991 0 5.416-2.425 5.416-5.416 0-2.991-2.425-5.416-5.416-5.416z" fill="#5e3e2f"/></g></g></g><g><path d="m208.475 250h-160.95c-8.672 0-15.727-7.055-15.727-15.727 0-8.671 7.055-15.726 15.727-15.726h2.475v-69.714c-3.339-.721-5.849-3.698-5.849-7.25 0-1.55.479-2.991 1.295-4.183-3.691-1.526-6.295-5.166-6.295-9.401s2.604-7.875 6.295-9.401c-.816-1.191-1.295-2.632-1.295-4.183 0-3.552 2.51-6.528 5.849-7.25v-69.712h-2.475c-8.672 0-15.727-7.055-15.727-15.726.001-8.672 7.056-15.727 15.727-15.727h160.949c8.672 0 15.727 7.055 15.727 15.727 0 8.671-7.055 15.726-15.727 15.726h-2.474v69.714c3.339.721 5.849 3.698 5.849 7.25 0 1.55-.479 2.991-1.295 4.183 3.691 1.526 6.295 5.166 6.295 9.401s-2.604 7.875-6.295 9.401c.816 1.191 1.295 2.632 1.295 4.183 0 3.552-2.51 6.528-5.849 7.25v69.714h2.475c8.672 0 15.727 7.055 15.727 15.726-.001 8.67-7.056 15.725-15.727 15.725zm-160.95-27.453c-6.466 0-11.727 5.26-11.727 11.726s5.262 11.727 11.727 11.727h160.949c6.466 0 11.727-5.261 11.727-11.727s-5.261-11.726-11.727-11.726h-4.474c-1.104 0-2-.896-2-2v-73.547c0-1.104.896-2 2-2h.434c1.883 0 3.415-1.532 3.415-3.416s-1.532-3.416-3.415-3.416c-1.104 0-2-.896-2-2s.896-2 2-2h2.247c3.401 0 6.168-2.767 6.168-6.168s-2.767-6.168-6.168-6.168h-2.247c-1.104 0-2-.896-2-2s.896-2 2-2c1.883 0 3.415-1.532 3.415-3.416s-1.533-3.416-3.415-3.416h-.434c-1.104 0-2-.896-2-2v-73.547c0-1.104.896-2 2-2h4.475c6.466 0 11.727-5.26 11.727-11.726s-5.262-11.727-11.727-11.727h-160.95c-6.466 0-11.727 5.261-11.727 11.727s5.261 11.726 11.727 11.726h4.475c1.104 0 2 .896 2 2v73.547c0 1.104-.896 2-2 2h-.434c-1.883 0-3.415 1.532-3.415 3.416s1.532 3.416 3.415 3.416c1.104 0 2 .896 2 2s-.896 2-2 2h-2.247c-3.401 0-6.168 2.767-6.168 6.168s2.767 6.168 6.168 6.168h2.247c1.104 0 2 .896 2 2s-.896 2-2 2c-1.883 0-3.415 1.532-3.415 3.416s1.533 3.416 3.415 3.416h.434c1.104 0 2 .896 2 2v73.547c0 1.104-.896 2-2 2zm141.173 0h-7.664c-1.104 0-2-.896-2-2v-39.785c0-7.123-2.773-13.82-7.811-18.857l-21.028-21.028c-1.964-1.963-3.046-4.575-3.046-7.353v-11.049c0-2.778 1.082-5.389 3.046-7.353l21.028-21.028c5.037-5.037 7.811-11.734 7.811-18.857v-39.784c0-1.104.896-2 2-2h7.664c1.104 0 2 .896 2 2v73.547c0 1.104-.896 2-2 2h-.434c-1.884 0-3.416 1.532-3.416 3.416s1.532 3.416 3.416 3.416c1.104 0 2 .896 2 2s-.896 2-2 2h-2.247c-3.401 0-6.169 2.767-6.169 6.168s2.768 6.168 6.169 6.168h2.247c1.104 0 2 .896 2 2s-.896 2-2 2c-1.884 0-3.416 1.532-3.416 3.416s1.532 3.416 3.416 3.416h.434c1.104 0 2 .896 2 2v73.547c0 1.105-.895 2-2 2zm-5.664-4h3.664v-69.714c-3.34-.721-5.85-3.697-5.85-7.25 0-1.55.479-2.991 1.295-4.183-3.691-1.526-6.295-5.166-6.295-9.401s2.604-7.875 6.295-9.401c-.816-1.191-1.295-2.632-1.295-4.183 0-3.552 2.51-6.529 5.85-7.25v-69.712h-3.664v37.785c0 8.191-3.19 15.893-8.982 21.685l-21.028 21.028c-1.208 1.209-1.874 2.815-1.874 4.525v11.049c0 1.709.665 3.316 1.874 4.524l21.028 21.029c5.792 5.792 8.982 13.494 8.982 21.685zm-108.068 4h-7.664c-1.104 0-2-.896-2-2v-73.547c0-1.104.896-2 2-2h.434c1.884 0 3.416-1.532 3.416-3.416s-1.532-3.416-3.416-3.416c-1.104 0-2-.896-2-2s.896-2 2-2h2.247c3.401 0 6.169-2.767 6.169-6.168s-2.768-6.168-6.169-6.168h-2.247c-1.104 0-2-.896-2-2s.896-2 2-2c1.884 0 3.416-1.532 3.416-3.416s-1.533-3.416-3.417-3.416h-.434c-1.104 0-2-.896-2-2v-73.547c0-1.104.896-2 2-2h7.664c1.104 0 2 .896 2 2v39.785c0 7.123 2.773 13.82 7.811 18.857l21.028 21.028c1.964 1.964 3.046 4.575 3.046 7.353v11.049c0 2.778-1.082 5.389-3.046 7.353l-21.028 21.028c-5.037 5.037-7.811 11.734-7.811 18.857v39.785c.001 1.104-.895 1.999-1.999 1.999zm-5.664-4h3.664v-37.785c0-8.191 3.19-15.893 8.982-21.685l21.028-21.028c1.209-1.208 1.874-2.815 1.874-4.524v-11.049c0-1.709-.666-3.316-1.874-4.525l-21.028-21.029c-5.792-5.792-8.982-13.494-8.982-21.685v-37.784h-3.664v69.714c3.34.721 5.85 3.697 5.85 7.25 0 1.55-.479 2.991-1.295 4.183 3.691 1.526 6.295 5.166 6.295 9.401s-2.604 7.875-6.295 9.401c.816 1.191 1.295 2.632 1.295 4.183 0 3.552-2.51 6.529-5.85 7.25z" fill="#422618"/></g></g></svg>