<svg id="Layer_1" enable-background="new 0 0 512 512" height="512" viewBox="0 0 512 512" width="512" xmlns="http://www.w3.org/2000/svg"><path clip-rule="evenodd" d="m50.746 125.124c-1.219 172.205 65.934 293.216 205.257 369.78 139.266-76.536 206.447-197.575 205.228-369.78l-205.228-108.085z" fill="#e9e7fc" fill-rule="evenodd"/><path clip-rule="evenodd" d="m256.003 494.904c139.266-76.536 206.447-197.575 205.228-369.78l-205.228-108.085z" fill="#aaa8b8" fill-rule="evenodd"/><path d="m477.19 120.164c-.057-2.919-1.701-5.584-4.28-6.945l-213.194-112.28c-2.324-1.247-5.131-1.247-7.455 0l-213.194 112.28c-2.58 1.36-4.224 4.025-4.252 6.945-1.361 93.43 17.433 174.217 55.786 240.066 35.915 61.654 90.283 112.394 161.603 150.832 1.191.623 2.495.935 3.798.935 1.304 0 2.608-.312 3.77-.935 71.32-38.438 125.688-89.178 161.575-150.832 38.382-65.849 57.147-146.608 55.843-240.066zm-221.187 374.74c-139.323-76.564-206.476-197.575-205.257-369.78l205.257-108.085 205.228 108.085c1.219 172.205-65.962 293.244-205.228 369.78zm158.088-346.734-154.375-81.298c-2.324-1.247-5.102-1.247-7.455 0l-154.375 81.298c-2.75 1.446-4.394 4.337-4.252 7.427 5.868 129.401 57.572 223.483 158.06 287.604 1.304.85 2.806 1.247 4.309 1.247 1.474 0 2.976-.397 4.28-1.247 100.488-64.148 152.192-158.202 158.06-287.604.142-3.09-1.502-5.981-4.252-7.427zm-158.088 278.759c-91.673-60.179-139.522-147.628-146.155-266.995l146.154-76.96 146.126 76.96c-6.632 119.339-54.481 206.787-146.125 266.995z"/><g clip-rule="evenodd" fill-rule="evenodd"><path d="m109.848 159.934c6.633 119.367 54.482 206.816 146.154 266.995 91.644-60.208 139.493-147.656 146.126-266.995l-146.126-76.96z" fill="#bf7d5a"/><path d="m256.003 426.929c91.644-60.208 139.493-147.656 146.126-266.995l-146.126-76.96z" fill="#9b6649"/></g></svg>