<svg height="512pt" viewBox="0 0 512 512.0479" width="512pt" xmlns="http://www.w3.org/2000/svg"><path d="m358.425781 264.582031c52.726563-30.722656 108.371094-69.566406 145.066407-119.46875-34.046876-.277343-67.890626 5.308594-100.039063 16.523438 7.476563-2.679688 13.289063-18.246094 16.710937-25.105469 4.660157-9.230469 8.359376-18.910156 11.039063-28.894531 5.464844-17.746094 5.394531-36.730469-.203125-54.433594-10.238281-26.835937-35.960938-44.582031-64.683594-44.621094-29.867187-.589843-59.867187 0-89.769531 0h-142.753906c-27.957031 0-65.246094-5.488281-90.53125 8.804688-16.089844 9.304687-27.742188 24.707031-32.316407 42.71875-4.578124 18.015625-1.691406 37.113281 8.003907 52.964843 18.570312 29.613282 48.609375 32.042969 80.0625 32.042969-9.207031 27.519531-25.71875 51.953125-40.277344 76.800781-18.226563 29.605469-32.117187 61.667969-41.242187 95.214844-10.019532 40.117188-16.078126 87.664063 3.507812 125.800782 17.277344 33.558593 51.328125 59.808593 89.957031 60.585937 80.777344 1.621094 161.785157.230469 242.578125 0 30.523438 1.070313 59.175782-14.683594 74.625-41.03125 22.492188-42.035156-16.242187-95.503906-61.203125-95.503906h-105.464843c3.261718-12.597657 7.753906-24.839844 13.417968-36.554688 4.71875-10.453125 12.28125-19.371093 21.816406-25.738281 19.851563-14.4375 40.445313-27.828125 61.699219-40.105469zm-106.277343 77.355469c-.621094.597656-1.191407 1.175781-1.773438 1.757812.589844-.605468 1.152344-1.152343 1.773438-1.757812zm-6.824219-21.4375c-.867188 2.097656-1.683594 4.152344-2.457031 6.160156.765624-2.011718 1.578124-4.050781 2.449218-6.160156zm3.300781-7.757812c-.726562 1.640624-1.425781 3.261718-2.089844 4.847656.664063-1.59375 1.355469-3.207032 2.082032-4.847656zm107.675781-128.492188c.527344-.324219 1.082031-.640625 1.621094-.964844-.539063.324219-1.09375.640625-1.621094.964844zm-31.285156 22.945312c.546875-.46875 1.074219-.949218 1.628906-1.410156-.554687.460938-1.082031.941406-1.628906 1.410156zm9.457031-7.730468 2.335938-1.800782zm10.503906-7.757813c.800782-.554687 1.621094-1.101562 2.421876-1.648437-.800782.546875-1.621094 1.136718-2.421876 1.648437zm-51.082031 47.144531-.640625.753907zm-6.460937 8.066407c-.492188.640625-.996094 1.277343-1.484375 1.917969.488281-.640626.992187-1.277344 1.484375-1.917969zm-6.585938 8.867187c-.570312.753906-1.105468 1.515625-1.613281 2.277344.53125-.773438 1.066406-1.535156 1.613281-2.277344zm-6.253906 9.09375c-.488281.734375-.949219 1.460938-1.425781 2.195313.476562-.734375.9375-1.460938 1.425781-2.195313zm-5.820312 9.148438-.699219 1.167968zm-12.648438 22.785156c-.527344 1.058594-1.082031 2.125-1.585938 3.164062.511719-1.046874 1.058594-2.117187 1.585938-3.164062zm-3.855469 7.917969c-.648437 1.375-1.296875 2.746093-1.910156 4.097656.613281-1.351563 1.261719-2.722656 1.910156-4.097656zm-9.898437 23.117187c-4.265625 11.152344-11.886719 26.675782-11.886719 38.964844 1.542969-2.347656 3.214844-4.609375 5-6.777344-1.792969 2.246094-3.507813 4.539063-5.121094 6.945313 2.949219-13.34375 6.964844-26.429688 12.007813-39.132813zm4.496094 19.378906c-.535157.5625-1.101563 1.136719-1.613282 1.707032.53125-.570313 1.09375-1.144532 1.640625-1.707032zm-5.433594 5.8125c-.453125.503907-.855469.953126-1.265625 1.433594zm-3.3125 3.804688c-.476563.554688-.929688 1.101562-1.355469 1.621094.484375-.527344.902344-1.058594 1.382813-1.621094zm19.363281 69.121094c3.3125 19.097656 12.789063 36.582031 26.980469 49.78125-14.238282-13.164063-23.71875-30.675782-26.957032-49.800782zm-1-7.304688c.121094 1.226563.230469 2.449219.394531 3.652344-.128906-1.222656-.257812-2.425781-.367187-3.671875zm40.722656 67.046875c-1.929687-1.257812-3.78125-2.5625-5.609375-3.996093 1.851563 1.375 3.679688 2.714843 5.632813 3.976562zm18.679688 9.625c-6.214844-2.460937-12.179688-5.507812-17.820313-9.097656 5.648438 3.585937 11.621094 6.625 17.84375 9.078125zm30.609375 7.507813c.996094.113281 1.996094.25 2.992187.324218-.980469-.09375-1.96875-.230468-3.011719-.339843zm-61.347656-26.453125c1.707031 1.582031 3.496093 3.09375 5.367187 4.53125-1.824219-1.476563-3.609375-3.003907-5.34375-4.566407zm34.339843 20.378906c1.378907.503906 2.789063.929687 4.195313 1.371094-1.382813-.46875-2.804688-.910157-4.171875-1.40625zm8.617188 2.695313c1.304687.351562 2.609375.675781 3.925781.980468-1.289062-.339844-2.621094-.664062-3.902344-1.015625zm8.949219 2.03125c1.203124.230468 2.40625.453124 3.621093.648437-1.1875-.222656-2.390625-.453125-3.585937-.683594zm23.589843-134.210938c.972657-.09375 1.953125-.105469 2.933594-.144531-.980469.039062-1.960937.050781-2.933594.144531zm-40.621093 18.414062c-.316407.308594-.664063.578126-.980469.894532.347656-.316406.699219-.585938.980469-.894532zm37.488281-18.003906c-.957031.132813-1.929688.226563-2.875.398438.980469-.171875 1.953125-.253906 2.933593-.398438zm-5.972657 1.109375c-.855468.203125-1.777343.363281-2.648437.605469.863281-.242188 1.757813-.402344 2.636719-.605469zm-5.8125 1.609375c-.855468.273438-1.636718.496094-2.433593.796875.785156-.300781 1.613281-.523437 2.425781-.8125zm-5.496093 2.066406c-.769531.332032-1.5625.625-2.320313.980469.75-.355469 1.542969-.648437 2.3125-.980469zm-5.195313 2.484376c-.753906.398437-1.527344.765624-2.253906 1.183593.71875-.417969 1.492188-.785156 2.246094-1.183593zm-5.019531 2.941406c-.699219.453125-1.425781.855468-2.097656 1.351562.640625-.480468 1.390625-.898437 2.089843-1.351562zm-4.835937 3.414062c-.617188.480469-1.246094.914063-1.835938 1.410156.578125-.480468 1.210938-.914062 1.800781-1.390624zm-24.40625 37.410156c.222656-.851562.398437-1.78125.65625-2.652343-.265626.886719-.445313 1.78125-.664063 2.671875zm1.707031-5.691406c.289062-.851562.535156-1.707031.851562-2.558594-.375.878907-.597656 1.730469-.886719 2.585938zm2.175781-5.519531c.339844-.777344.648438-1.570313 1.023438-2.332031-.410157.777344-.71875 1.570312-1.015626 2.347656zm2.660156-5.34375c.386719-.691406.726563-1.398437 1.128906-2.074219-.4375.691406-.777343 1.402344-1.160156 2.09375zm3.339844-5.417969c.332031-.484375.621094-.988281.972656-1.46875-.386718.496094-.675781 1-.992187 1.484375zm3.964844-5.273437c.257812-.308594.503906-.621094.769531-.929688-.300781.324219-.546875.640625-.800781.945313zm-55.183594-15.496094c.570312-2.832031 1.195312-5.640625 1.894531-8.421875-.691406 2.78125-1.316406 5.589844-1.894531 8.421875zm-2.960938 21.71875c.136719-1.988281.375-3.9375.578126-5.890625-.175782 1.953125-.441407 3.902344-.578126 5.890625zm1.175782-11.179687c.351562-2.5625.785156-5.121094 1.246094-7.613282-.464844 2.515625-.878907 5.050782-1.246094 7.613282zm.28125-50.117188c.4375-.410156.933594-.851562 1.375-1.253906-.441406.410156-.9375.84375-1.375 1.253906zm16.214844-14.164062c.433593-.359376.855468-.691407 1.261718-1.050782-.433594.359375-.828125.699219-1.261718 1.050782zm-9.207032 7.847656c.75-.65625 1.511719-1.320313 2.296875-1.996094-.785156.675781-1.546875 1.339844-2.296875 1.996094zm0 0" fill="#f6db6d"/><path d="m76.824219 8.582031c-37.703125 0-68.265625 30.5625-68.265625 68.265625s30.5625 68.265625 68.265625 68.265625h290.132812c-37.703125 0-68.265625-30.5625-68.265625-68.265625s30.5625-68.265625 68.265625-68.265625zm0 0" fill="#ffeb49"/><path d="m261.46875 366.980469c-3.59375 13.9375-5.425781 28.273437-5.445312 42.667969 0 8.65625 1.203124 17.273437 3.566406 25.597656h23.792968c7.988282.085937 14.929688-5.472656 16.597657-13.285156 6.339843-31.964844 34.390625-54.988282 66.976562-54.980469zm0 0" fill="#f88f00"/><path d="m358.425781 503.515625c-4.769531.027344-9.53125-.285156-14.253906-.941406-38.226563-4.691407-73.640625-28.328125-84.5625-67.328125h23.804687c8.039063.007812 14.984376-5.617188 16.640626-13.480469 5.421874-27.003906 26.570312-48.082031 53.589843-53.417969 4.265625-.890625 8.613281-1.347656 12.972657-1.367187 20.761718.644531 40.121093 10.652343 52.648437 27.222656 43.4375 53.675781-9.984375 109.3125-60.839844 109.3125zm0 0" fill="#f88f00"/><path d="m344.171875 502.574219c-38.226563-4.691407-73.640625-28.328125-84.5625-67.328125h23.804687c8.039063.007812 14.984376-5.617188 16.640626-13.480469 5.421874-27.003906 26.570312-48.082031 53.589843-53.417969 15.878907 3.851563 29.984375 12.964844 40.023438 25.855469 40.191406 49.664063-2.5625 101.035156-49.496094 108.371094zm0 0" fill="#ffa700"/><path d="m435.222656 76.847656c-1.027344 30.253906-11.238281 59.480469-29.269531 83.796875-12.214844 4.21875-24.082031 9.382813-35.496094 15.445313-112.46875 59.648437-138.921875 185.175781-139.949219 190.722656 2.621094-3.917969 5.5-7.652344 8.621094-11.179688 13.320313-14.855468 28.003906-28.425781 43.859375-40.535156-17.292969 28.535156-26.605469 61.1875-26.964843 94.550782 0 59.734374 51.199218 93.867187 102.402343 93.867187h-247.46875c-51.199219 0-102.398437-51.199219-102.398437-110.933594 0-128 68.519531-181.761719 90.453125-247.46875h267.945312c-35.246093.046875-64.730469-26.75-68.046875-61.835937-3.320312-35.089844 20.617188-66.9375 55.246094-73.5 4.222656-.792969 8.507812-1.191406 12.800781-1.195313 37.703125 0 68.265625 30.5625 68.265625 68.265625zm0 0" fill="#ffa700"/><path d="m409.625 76.847656c-.800781 28.285156-9.847656 55.71875-26.027344 78.933594-1.109375 1.621094-2.132812 3.242188-3.242187 4.863281-3.585938 5.460938-6.828125 10.667969-9.898438 15.445313-45.140625 71.425781-37.632812 71.425781-37.632812 71.425781s-115.96875 99.414063-75.433594 67.582031c-7.496094 12.832032-13.617187 26.417969-18.261719 40.535156-5.78125 17.421876-8.722656 35.660157-8.703125 54.015626 0 59.734374 51.199219 93.867187 102.398438 93.867187h-221.867188c-51.199219 0-102.398437-51.199219-102.398437-110.933594 0-128 68.519531-181.761719 90.453125-247.46875h267.945312c-35.246093.046875-64.730469-26.75-68.046875-61.835937-3.320312-35.089844 20.617188-66.9375 55.246094-73.5 32.191406 6.144531 55.476562 34.296875 55.46875 67.070312zm0 0" fill="#ffc900"/><path d="m503.492188 145.113281c-214.957032 74.410157-269.742188 212.90625-272.898438 221.441407 2.050781-10.496094 48.300781-221.441407 272.898438-221.441407zm0 0" fill="#354aa3"/><path d="m503.492188 145.113281s-42.667969 59.734375-145.066407 119.46875c-98.5625 57.515625-125.953125 99.15625-127.917969 102.230469-.011718-.097656.023438-.191406.085938-.257812 3.15625-8.535157 57.941406-147.03125 272.898438-221.441407zm0 0" fill="#5068c1"/><path d="m366.957031 153.648438h-290.132812c-42.414063 0-76.8007815-34.386719-76.8007815-76.800782 0-42.414062 34.3867185-76.800781 76.8007815-76.800781h290.132812c4.714844 0 8.535157 3.820313 8.535157 8.535156 0 4.710938-3.820313 8.53125-8.535157 8.53125-32.988281 0-59.734375 26.746094-59.734375 59.734375 0 32.988282 26.746094 59.734375 59.734375 59.734375 4.714844 0 8.535157 3.820313 8.535157 8.53125 0 4.714844-3.820313 8.535157-8.535157 8.535157zm-290.132812-136.535157c-32.988281 0-59.734375 26.746094-59.734375 59.734375 0 32.988282 26.746094 59.734375 59.734375 59.734375h241.910156c-18.070313-14.5625-28.578125-36.523437-28.578125-59.734375 0-23.207031 10.507812-45.171875 28.578125-59.734375zm0 0"/><path d="m136.558594 51.246094h-25.601563c-4.710937 0-8.53125-3.820313-8.53125-8.53125 0-4.714844 3.820313-8.535156 8.53125-8.535156h25.601563c4.710937 0 8.53125 3.820312 8.53125 8.535156 0 4.710937-3.820313 8.53125-8.53125 8.53125zm0 0"/><path d="m43.773438 76.847656c-.722657 0-1.441407-.089844-2.140626-.273437-4.5625-1.179688-7.304687-5.832031-6.128906-10.394531 4.867188-18.839844 21.863282-32 41.320313-32 4.710937 0 8.53125 3.820312 8.53125 8.535156 0 4.710937-3.820313 8.53125-8.53125 8.53125-11.660157.019531-21.832031 7.914062-24.746094 19.203125-.976563 3.78125-4.398437 6.417969-8.304687 6.398437zm0 0"/><path d="m283.382812 443.78125h-23.800781c-3.820312-.003906-7.171875-2.542969-8.207031-6.222656-2.566406-9.082032-3.875-18.472656-3.882812-27.910156.007812-15.105469 1.925781-30.148438 5.707031-44.773438.964843-3.78125 4.367187-6.425781 8.269531-6.425781h105.488281c4.714844 0 8.535157 3.820312 8.535157 8.53125 0 4.714843-3.820313 8.535156-8.535157 8.535156-28.496093.03125-53.015625 20.152344-58.605469 48.09375-2.460937 11.8125-12.90625 20.25-24.96875 20.171875zm-17.066406-17.066406h17.066406c3.917969.097656 7.359376-2.585938 8.226563-6.410156 3.496094-17.652344 13.101563-33.511719 27.125-44.789063h-50.507813c-2.4375 11.214844-3.667968 22.65625-3.667968 34.132813-.019532 5.730468.550781 11.449218 1.707031 17.066406zm0 0"/><path d="m196.289062 384.046875c-1.679687 0-3.324218-.5-4.726562-1.433594l-16.589844-11.09375c-2.582031-1.722656-5.949218-1.722656-8.53125 0l-7.59375 5.054688c-8.320312 5.554687-19.167968 5.554687-27.488281 0l-7.578125-5.054688c-2.582031-1.722656-5.949219-1.722656-8.53125 0l-7.59375 5.054688c-8.320312 5.554687-19.167969 5.554687-27.488281 0l-7.609375-5.019531c-2.585938-1.726563-5.953125-1.726563-8.535156 0l-16.597657 11.09375c-2.535156 1.691406-5.78125 1.902343-8.515625.550781-2.734375-1.351563-4.539062-4.054688-4.734375-7.097657-.199219-3.042968 1.242188-5.960937 3.777344-7.652343l16.597656-11.09375c8.320313-5.554688 19.167969-5.554688 27.488281 0l7.578126 5.050781c2.582031 1.726562 5.949218 1.726562 8.53125 0l7.59375-5.050781c8.320312-5.554688 19.167968-5.554688 27.488281 0l7.578125 5.050781c2.582031 1.726562 5.949218 1.726562 8.53125 0l7.59375-5.050781c8.320312-5.554688 19.167968-5.554688 27.488281 0l16.585937 11.09375c3.097657 2.09375 4.46875 5.960937 3.386719 9.535156-1.082031 3.578125-4.367187 6.035156-8.105469 6.0625zm0 0"/><path d="m213.355469 315.78125c-1.679688 0-3.324219-.5-4.726563-1.433594l-16.585937-11.09375c-2.585938-1.726562-5.953125-1.726562-8.535157 0l-7.59375 5.050782c-8.320312 5.558593-19.167968 5.558593-27.488281 0l-7.578125-5.050782c-2.582031-1.726562-5.949218-1.726562-8.53125 0l-7.59375 5.050782c-8.320312 5.558593-19.167968 5.558593-27.488281 0l-7.578125-5.050782c-2.582031-1.726562-5.949219-1.726562-8.53125 0l-16.597656 11.09375c-2.535156 1.691406-5.78125 1.902344-8.515625.550782-2.734375-1.351563-4.539063-4.054688-4.738281-7.097657-.195313-3.042969 1.246093-5.960937 3.78125-7.652343l16.597656-11.09375c8.320312-5.554688 19.167968-5.554688 27.484375 0l7.578125 5.050781c2.585937 1.726562 5.953125 1.726562 8.535156 0l7.59375-5.050781c8.320312-5.554688 19.167969-5.554688 27.488281 0l7.574219 5.050781c2.585938 1.726562 5.953125 1.726562 8.535156 0l7.59375-5.050781c8.320313-5.554688 19.167969-5.554688 27.488282 0l16.585937 11.09375c3.132813 2.085937 4.527344 5.980468 3.429687 9.582031-1.09375 3.601562-4.417968 6.058593-8.183593 6.050781zm0 0"/><path d="m238.957031 256.046875c-1.683593 0-3.328125-.5-4.726562-1.433594l-16.589844-11.09375c-2.582031-1.722656-5.949219-1.722656-8.53125 0l-7.597656 5.054688c-8.320313 5.554687-19.164063 5.554687-27.484375 0l-7.578125-5.054688c-2.582031-1.722656-5.949219-1.722656-8.53125 0l-7.597657 5.054688c-8.320312 5.554687-19.164062 5.554687-27.484374 0l-7.578126-5.054688c-2.582031-1.722656-5.949218-1.722656-8.53125 0l-16.597656 11.09375c-3.921875 2.617188-9.222656 1.558594-11.835937-2.363281-2.617188-3.921875-1.558594-9.21875 2.363281-11.835938l16.597656-11.09375c8.320313-5.554687 19.164063-5.554687 27.484375 0l7.578125 5.054688c2.582032 1.722656 5.949219 1.722656 8.53125 0l7.597656-5.054688c8.320313-5.554687 19.164063-5.554687 27.484376 0l7.578124 5.054688c2.582032 1.722656 5.949219 1.722656 8.535157 0l7.59375-5.054688c8.320312-5.554687 19.164062-5.554687 27.484375 0l16.589844 11.09375c3.128906 2.089844 4.523437 5.980469 3.429687 9.582032-1.09375 3.601562-4.417969 6.058594-8.183594 6.050781zm0 0"/><path d="m230.425781 375.515625c-2.542969-.003906-4.949219-1.136719-6.570312-3.09375-1.621094-1.957031-2.285157-4.53125-1.8125-7.027344.4375-2.3125 46.710937-228.8125 281.449219-228.8125 3.195312 0 6.121093 1.785157 7.585937 4.625 1.464844 2.84375 1.214844 6.265625-.640625 8.867188-1.792969 2.5-44.910156 61.917969-147.710938 121.878906-98.554687 57.480469-124.75 99.039063-125.007812 99.457031-1.546875 2.550782-4.3125 4.105469-7.292969 4.105469zm254.480469-221.363281c-152.925781 8.371094-213.878906 119.59375-235.519531 178.574218 31.917969-29.097656 67.070312-54.4375 104.769531-75.519531 48.613281-27.441406 92.710938-62.199219 130.75-103.054687zm0 0"/><path d="m230.425781 375.515625c-2.769531 0-5.363281-1.34375-6.964843-3.605469-1.597657-2.257812-2.003907-5.152344-1.082032-7.761718 2.148438-6.085938 55.132813-149.835938 278.320313-227.089844 4.445312-1.503906 9.265625.859375 10.800781 5.292968 1.535156 4.433594-.796875 9.273438-5.21875 10.835938-214.886719 74.375-267.324219 215.234375-267.820312 216.644531-1.207032 3.402344-4.425782 5.679688-8.035157 5.683594zm0 0"/><path d="m358.425781 512.046875c-50.707031 0-94.722656-30.632813-107.050781-74.488281-.726562-2.570313-.203125-5.332032 1.40625-7.460938 1.613281-2.128906 4.128906-3.382812 6.800781-3.382812h23.808594c3.980469.027344 7.433594-2.746094 8.269531-6.640625 7.28125-35.648438 38.503906-61.34375 74.886719-61.625 23.371094.570312 45.210937 11.753906 59.332031 30.386719 19.054688 23.566406 23.042969 50.105468 11.332032 74.691406-15.222657 29.542968-45.554688 48.222656-78.785157 48.519531zm-86.648437-68.265625c16.519531 32.417969 50.28125 52.367188 86.648437 51.199219 26.628907-.394531 50.925781-15.269531 63.382813-38.808594 6.195312-12.960937 9.625-33.28125-9.199219-56.609375-10.828125-14.507812-27.632813-23.347656-45.71875-24.046875h-.25c-28.289063.21875-52.574219 20.191406-58.246094 47.90625-2.441406 11.863281-12.890625 20.371094-25.003906 20.359375zm0 0"/><path d="m358.425781 512.046875h-247.46875c-58.027343 0-110.9335935-56.941406-110.9335935-119.464844 0-89.105469 31.7695315-142.269531 59.7929685-189.160156 12.488282-19.1875 22.917969-39.636719 31.121094-61.011719 1.160156-3.472656 4.410156-5.820312 8.074219-5.828125h219.722656c-27.847656-22.46875-36.492187-61.191406-20.839844-93.367187 15.652344-32.179688 51.453125-49.285156 86.320313-41.242188 34.867187 8.039063 59.5625 39.09375 59.542968 74.875 0 29.253906-9.761718 57.402344-30.71875 88.59375-1.03125 1.535156-2.527343 2.695313-4.269531 3.308594-96.074219 33.28125-140.40625 115.371094-158.71875 163.355469 7.347657-6.9375 16.46875-14.90625 27.691407-23.722657 3.210937-2.53125 7.769531-2.421874 10.859374.253907 3.09375 2.675781 3.851563 7.167969 1.8125 10.710937-16.554687 27.242188-25.484374 58.425782-25.855468 90.300782 0 55.421874 48.355468 85.332031 93.867187 85.332031 4.710938 0 8.53125 3.820312 8.53125 8.535156 0 4.710937-3.820312 8.53125-8.53125 8.53125zm-253.375-358.398437c-8.453125 20.367187-18.6875 39.949218-30.582031 58.519531-26.898438 45.007812-57.378906 96.011719-57.378906 180.414062 0 52.632813 45.621094 102.398438 93.867187 102.398438h184.890625c-30.460937-17.507813-48.988281-50.203125-48.355468-85.332031.011718-21.085938 3.6875-42.011719 10.863281-61.839844-7.703125 7.109375-14.625 15.027344-20.644531 23.609375-2.148438 3.527343-6.511719 5.007812-10.359376 3.519531-3.851562-1.484375-6.085937-5.515625-5.308593-9.570312.308593-1.601563 32.308593-159.359376 178.347656-211.789063 16.273437-22.355469 25.4375-49.09375 26.300781-76.730469 0-32.988281-26.746094-59.734375-59.734375-59.734375s-59.734375 26.746094-59.734375 59.734375c0 32.988282 26.746094 59.734375 59.734375 59.734375 4.714844 0 8.535157 3.820313 8.535157 8.53125 0 4.714844-3.820313 8.535157-8.535157 8.535157zm0 0"/></svg>