<svg xmlns="http://www.w3.org/2000/svg" version="1.1" xmlns:xlink="http://www.w3.org/1999/xlink" width="512" height="512" x="0" y="0" viewBox="0 0 512 512" style="enable-background:new 0 0 512 512" xml:space="preserve" class=""><g><path d="M91.685 341.495c-19.565 14.916-44.497 14.738-59.388 8.262-5.888-2.562-15.941-8.606-17.101-20.306-.858-8.648 1.63-15.757 7.394-21.131 10.707-9.98 31.537-13.475 55.721-9.344 39.738 6.787 94.162 16.083 108.214-18.831 2.668-6.629 2.535-13.177-.385-18.938-8.059-15.894-35.029-22.769-66.258-30.73-11.097-2.829-22.573-5.754-32.774-9.073-24.505-7.972-40.89-19.626-44.956-31.974-2.328-7.072-.644-14.668 5.006-22.578 3.252-4.554 8.188-7.066 15.087-7.68 19.705-1.751 49.505 12.689 72.485 35.117 19.586 19.114 42.349 28.193 62.47 24.902 11.75-1.921 21.042-8.004 25.492-16.69 10.709-20.902-.709-71.279-43.633-105.839-24.065-19.376-25.729-38.909-24.579-48.827 1.432-12.346 8.693-23.069 18.95-27.986 13.294-6.374 24.843-6.508 35.301-.41 21.441 12.5 33.269 48.405 35.187 76.476.681 9.977.968 19.536 1.219 27.97.952 31.825 1.704 56.963 24.692 61.236 7.903 1.471 20.123-.299 33.497-17.058 7.941-9.953 15.467-24.258 21.189-40.28a7.514 7.514 0 1 0-14.153-5.056c-10.605 29.687-26.484 49.72-37.786 47.617-10.582-1.967-11.535-17.438-12.417-46.909-.255-8.568-.546-18.28-1.248-28.544-2.251-32.967-16.3-73.097-42.61-88.435-14.669-8.552-31.741-8.608-49.368-.158-14.869 7.128-25.361 22.382-27.382 39.809-2.564 22.113 8.401 44.808 30.083 62.265 41.377 33.316 45.208 76.491 39.682 87.278-2.217 4.328-7.654 7.584-14.541 8.71-7.266 1.188-26.634 1.536-49.548-20.826-26.302-25.67-60.181-41.475-84.313-39.331-11.211.997-20.197 5.809-25.987 13.915-8.466 11.854-10.904 24.307-7.05 36.014 5.743 17.445 24.616 31.819 54.581 41.568 10.666 3.469 22.382 6.456 33.711 9.344 24.183 6.165 51.591 13.151 56.566 22.962.643 1.267 1.205 3.154-.152 6.528-8.8 21.859-48.418 17.028-91.743 9.628-29.209-4.987-54.173-.189-68.499 13.165C3.1 305.942-1.085 317.564.24 330.935c1.401 14.126 10.9 26.01 26.064 32.605 8.565 3.726 18.016 5.536 27.604 5.536 16.529 0 33.456-5.386 46.89-15.629a7.516 7.516 0 0 0 1.42-10.533 7.518 7.518 0 0 0-10.533-1.419z" fill="#ffffff" opacity="1" data-original="#000000"></path><path d="M460.337 316.5c-3.423-2.346-8.1-1.472-10.446 1.952s-1.473 8.101 1.951 10.447c13.839 9.483 23.716 18.352 29.358 26.361 8.143 11.56 5.75 18.668 3.241 23.008-3.733 6.459-8.139 9.959-13.469 10.7-17.078 2.373-42.217-22.009-51.679-31.19-18.134-17.596-39.55-35.312-60.709-33.297-10.691 1.016-19.911 6.959-27.405 17.663-13.214 18.873-8.039 47.904-3.035 75.98 3.907 21.924 7.948 44.593 2.23 58.648-6.214 15.275-18.624 17.917-25.468 18.133-13.594.412-27.339-7.381-32.733-18.565-5.125-10.628 2.722-29.721 10.312-48.186 10.184-24.778 21.728-52.862 6.006-72.209-7.952-9.786-16.373-11.166-22.019-10.603-20.925 2.086-38.643 32.693-56.453 66.598-.951 1.812-1.864 3.55-2.735 5.193-3.842 7.248-7.293 16.4-10.947 26.089-8.071 21.402-17.221 45.659-31.663 52.108-5.198 2.321-11.023 2.17-17.807-.463-11.849-4.6-18.563-12.767-19.954-24.275-2.541-21.031 13.127-49.047 28.835-60.046 29.632-20.748 61.698-52.107 46.174-83.67-4.021-8.176-13.392-17.699-35.133-16.588-13.285.673-29.648 5.444-46.073 13.432-.786.382-1.57.771-2.351 1.165a7.516 7.516 0 0 0 6.777 13.416c.714-.361 1.43-.716 2.148-1.065 24.476-11.904 54.053-18.15 61.146-3.727 4.514 9.176 2.813 19.335-5.199 31.055-7.295 10.672-19.443 22-36.109 33.669-19.634 13.748-38.438 46.829-35.134 74.161 2.078 17.199 12.257 29.815 29.435 36.483 5.359 2.08 10.543 3.121 15.515 3.121 4.83 0 9.461-.982 13.858-2.945 20.165-9.004 30.49-36.378 39.599-60.528 3.481-9.23 6.769-17.948 10.164-24.354.879-1.658 1.8-3.412 2.761-5.241 9.748-18.559 30.032-57.176 44.637-58.632 1.869-.188 4.816.143 8.865 5.126 10.089 12.415.769 35.088-8.244 57.015-9.25 22.504-17.987 43.761-9.949 60.429 7.98 16.547 27.198 27.66 46.744 27.059 17.853-.562 32.038-10.582 38.917-27.491 7.355-18.078 2.927-42.923-1.355-66.95-4.466-25.054-9.084-50.962.55-64.721 4.922-7.029 10.324-10.732 16.517-11.321 15.36-1.463 35.216 15.921 48.821 29.122 18.334 17.79 39.548 35.601 59.695 35.599 1.512 0 3.022-.101 4.521-.309 10.079-1.402 18.293-7.48 24.41-18.066 4.86-8.409 8.117-22.033-3.966-39.186-6.773-9.611-17.616-19.458-33.152-30.104z" fill="#ffffff" opacity="1" data-original="#000000"></path><path d="M497.174 180.172c-15.303-10.696-40.428-12.03-64.006-3.399-8.972 3.283-17.165 7.446-25.089 11.472-22.202 11.281-38.241 19.432-58.527 4.744-4.941-3.579-7.396-7.459-7.725-12.213-1.198-17.326 24.59-42.073 39.998-56.858 1.791-1.719 3.478-3.338 5.018-4.841 7.859-7.67 33.2-34.709 29.333-60.62-1.211-8.118-5.97-19.508-21.758-27.665-9.952-5.142-19.952-5.735-29.724-1.758-10.4 4.233-30.167 18.314-45.706 65.063a7.515 7.515 0 1 0 14.262 4.741c9.815-29.529 23.688-50.42 37.11-55.883 5.593-2.276 11.204-1.887 17.161 1.189 8.257 4.266 12.768 9.674 13.792 16.53 2.239 14.999-12.049 35.04-24.965 47.645a825.521 825.521 0 0 1-4.928 4.753c-18.425 17.681-46.268 44.4-44.585 68.74.641 9.277 5.319 17.134 13.904 23.35 27.719 20.072 51.323 8.08 74.15-3.518 7.53-3.827 15.317-7.783 23.445-10.758 18.819-6.887 39.005-6.242 50.232 1.605 5.578 3.898 8.406 9.255 8.406 15.919 0 1.651 0 4.723-8.04 7.587-7.136 2.542-17.428 3.778-28.326 5.086-20.007 2.403-40.696 4.887-53.687 15.982-13.625 11.635-20.378 23.473-20.069 35.185.257 9.792 5.503 18.886 15.169 26.298 3.214 2.465 8.785 5.638 16.494 10.03 2.591 1.476 5.38 3.065 8.299 4.755a7.512 7.512 0 0 0 10.268-2.74 7.516 7.516 0 0 0-2.74-10.269c-2.951-1.708-5.77-3.314-8.388-4.806-6.648-3.787-12.388-7.058-14.789-8.898-6.028-4.623-9.154-9.591-9.29-14.766-.181-6.857 4.938-14.935 14.804-23.359 9.536-8.143 28.759-10.452 45.72-12.489 11.754-1.412 22.858-2.745 31.575-5.851 8.224-2.93 18.027-9.08 18.027-21.746.001-11.526-5.264-21.555-14.825-28.237z" fill="#ffffff" opacity="1" data-original="#000000"></path><path d="M436.554 142.57c.48.061 4.484.546 10.305.546 12.124 0 32.124-2.102 44.527-14.506 6.329-6.328 9.814-14.742 9.814-23.692s-3.485-17.364-9.813-23.692c-13.064-13.063-34.318-13.062-47.382 0-18.357 18.359-14.148 53.356-13.96 54.837a7.52 7.52 0 0 0 6.509 6.507zm18.079-50.716c7.206-7.204 18.924-7.202 26.127-.001 3.489 3.49 5.411 8.129 5.411 13.064s-1.922 9.574-5.412 13.064c-8.815 8.816-25.774 10.358-36.218 10.094-.264-10.436 1.277-27.406 10.092-36.221zM107.547 118.44c7.193 0 12.154-.6 12.746-.675a7.516 7.516 0 0 0 6.508-6.507c.231-1.816 5.393-44.719-16.93-67.044-7.562-7.562-17.615-11.727-28.308-11.727-10.694 0-20.748 4.165-28.309 11.727S41.529 61.83 41.529 72.524s4.164 20.748 11.725 28.31c15.043 15.045 39.431 17.606 54.293 17.606zM63.882 54.842c4.874-4.875 11.277-7.313 17.68-7.313 6.404 0 12.807 2.438 17.681 7.313 12.895 12.895 13.559 37.152 13.086 48.451-11.293.471-35.553-.191-48.447-13.087-9.75-9.749-9.75-25.613 0-35.364zM93.539 392.342c-1.814-.231-44.715-5.394-67.039 16.931-7.561 7.562-11.725 17.616-11.725 28.31s4.164 20.748 11.725 28.31c7.562 7.562 17.615 11.727 28.309 11.727 10.693 0 20.747-4.165 28.308-11.727 22.323-22.325 17.16-65.228 16.93-67.043a7.515 7.515 0 0 0-6.508-6.508zm-21.05 62.923c-9.746 9.75-25.612 9.751-35.361 0-9.749-9.75-9.749-25.614 0-35.364 11.245-11.247 31.129-13.189 43.526-13.189 1.818 0 3.476.042 4.921.102.473 11.3-.19 35.556-13.086 48.451zM399.171 423.271a7.516 7.516 0 0 0-6.508 6.507c-.204 1.606-4.768 39.547 15.066 59.383 6.788 6.788 15.811 10.526 25.41 10.526s18.623-3.738 25.41-10.526c6.789-6.788 10.526-15.813 10.526-25.413 0-9.599-3.738-18.624-10.525-25.412-19.836-19.835-57.773-15.268-59.379-15.065zm48.752 55.263c-3.948 3.949-9.199 6.124-14.783 6.124s-10.835-2.175-14.783-6.124c-7.376-7.376-9.951-19.408-10.813-28.204-.472-4.818-.493-9.234-.383-12.561 3.329-.11 7.743-.089 12.561.384 8.795.862 20.827 3.437 28.203 10.813a20.775 20.775 0 0 1 6.123 14.784 20.776 20.776 0 0 1-6.125 14.784z" fill="#ffffff" opacity="1" data-original="#000000"></path></g></svg>