<svg xmlns="http://www.w3.org/2000/svg" version="1.1" xmlns:xlink="http://www.w3.org/1999/xlink" width="512" height="512" x="0" y="0" viewBox="0 0 512 512" style="enable-background:new 0 0 512 512" xml:space="preserve" class=""><g><path d="M88.273 401.397a86.813 86.813 0 0 1-7.228-8.239l-70.976 70.978 42.83 42.83 70.978-70.977a87.08 87.08 0 0 1-8.239-7.228zM430.949 393.159a86.82 86.82 0 0 1-7.227 8.239l-27.364 27.364a87.086 87.086 0 0 1-8.238 7.228l70.97 70.97 42.831-42.831zM281.597 415.03l2.974 2.974c22.013 22.012 57.699 22.012 79.712 0l48.721-48.72c22.011-22.012 22.011-57.699 0-79.712l-2.975-2.974-32.191 32.114-36.253-36.253-64.236 64.236 36.253 36.253zM234.582 175.375 144.396 85.19A299.877 299.877 0 0 0 5.076 6.309L0 5.04l1.269 5.077a299.885 299.885 0 0 0 78.882 139.319l90.186 90.186z" fill="#000000" opacity="1" data-original="#000000"></path><path d="M431.849 149.43a299.89 299.89 0 0 0 78.882-139.319L512 5.033l-5.077 1.269a299.885 299.885 0 0 0-139.319 78.882L134.079 318.711l-32.121-32.121-2.974 2.974c-22.012 22.012-22.012 57.7 0 79.712l48.777 48.777c22.012 22.013 57.699 22.013 79.712 0l2.974-2.974-32.123-32.122z" fill="#000000" opacity="1" data-original="#000000"></path></g></svg>